{
 "cells": [
  {
   "cell_type": "markdown",
   "id": "Ljl1gCAnUbp9",
   "metadata": {
    "id": "Ljl1gCAnUbp9"
   },
   "source": [
    "基础检查 + 克隆项目"
   ]
  },
  {
   "cell_type": "code",
   "execution_count": null,
   "id": "XjWl3l67HVC7",
   "metadata": {
    "ExecutionIndicator": {
     "show": true
    },
    "colab": {
     "base_uri": "https://localhost:8080/"
    },
    "id": "XjWl3l67HVC7",
    "outputId": "1d6819a6-1534-463e-88f8-5a5e523346b5",
    "tags": []
   },
   "outputs": [],
   "source": [
    "# # 连接到云端硬盘\n",
    "# from google.colab import drive\n",
    "# drive.mount('/content/drive')"
   ]
  },
  {
   "cell_type": "code",
   "execution_count": null,
   "id": "QMhj8feYITjf",
   "metadata": {
    "ExecutionIndicator": {
     "show": true
    },
    "colab": {
     "base_uri": "https://localhost:8080/"
    },
    "id": "QMhj8feYITjf",
    "outputId": "8cfae0d8-68f3-4bf5-a474-df010453f1f1",
    "tags": []
   },
   "outputs": [],
   "source": [
    "!zip -r Ultralight-Digital-Human3.zip /mnt/workspace/content/drive/MyDrive/Ultralight-Digital-Human"
   ]
  },
  {
   "cell_type": "code",
   "execution_count": 11,
   "id": "4cec95c4-c2f7-401d-b9fb-98a76374a1a5",
   "metadata": {
    "execution": {
     "iopub.execute_input": "2025-11-27T07:45:34.185807Z",
     "iopub.status.busy": "2025-11-27T07:45:34.185473Z",
     "iopub.status.idle": "2025-11-27T07:45:34.736609Z",
     "shell.execute_reply": "2025-11-27T07:45:34.735913Z",
     "shell.execute_reply.started": "2025-11-27T07:45:34.185786Z"
    },
    "scrolled": true,
    "tags": []
   },
   "outputs": [
    {
     "name": "stdout",
     "output_type": "stream",
     "text": [
      "/mnt/workspace/content/drive/MyDrive/Ultralight-Digital-Human/content/drive/MyDrive/Ultralight-Digital-Human\n",
      "总计 112\n",
      "drwxr-xr-x   1 root root  4096 11月 27 15:25  .\n",
      "drwxr-xr-x   1 root root  4096 11月 27 15:25  ..\n",
      "-rw-r--r--   1 root root  6025 11月 17 21:05 '=0.9.0'\n",
      "lrwxrwxrwx   1 root root     7  2月 27  2024  bin -> usr/bin\n",
      "drwxr-xr-x   2 root root  4096  4月 18  2022  boot\n",
      "-rwxr-xr-x   1 root root  1067 11月 27 15:25  check-fluid-mount-ready.sh\n",
      "-rw-r--r--   1 root root  4332  4月  5  2024  cuda-keyring_1.1-1_all.deb\n",
      "drwxr-xr-x   5 root root   440 11月 27 15:25  dev\n",
      "drwxr-xr-x   1 root root  4096 11月 27 15:25  etc\n",
      "drwxr-xr-x   1 root root  4096 11月 27 15:25  home\n",
      "lrwxrwxrwx   1 root root     7  2月 27  2024  lib -> usr/lib\n",
      "lrwxrwxrwx   1 root root     9  2月 27  2024  lib32 -> usr/lib32\n",
      "lrwxrwxrwx   1 root root     9  2月 27  2024  lib64 -> usr/lib64\n",
      "lrwxrwxrwx   1 root root    10  2月 27  2024  libx32 -> usr/libx32\n",
      "drwxr-xr-x   2 root root  4096  2月 27  2024  media\n",
      "drwxr-xr-x   1 root root  4096 11月 27 15:25  mnt\n",
      "-rw-r--r--   1 root root 17294  4月  5  2024  NGC-DL-CONTAINER-LICENSE\n",
      "drwxr-xr-x   1 root root  4096  4月  5  2024  opt\n",
      "dr-xr-xr-x 301 root root     0 11月 27 15:25  proc\n",
      "drwx------   1 root root  4096 11月 27 15:25  root\n",
      "drwxr-xr-x   1 root root  4096 11月 27 15:25  run\n",
      "lrwxrwxrwx   1 root root     8  2月 27  2024  sbin -> usr/sbin\n",
      "drwxr-xr-x   2 root root  4096  2月 27  2024  srv\n",
      "dr-xr-xr-x  13 root root     0 11月 27 15:25  sys\n",
      "drwxrwxrwx   3 root root  4096 11月 27 15:36  tmp\n",
      "drwxr-xr-x   1 root root  4096  2月 27  2024  usr\n",
      "drwxr-xr-x   1 root root  4096 11月 17 20:08  var\n",
      "总计 72\n",
      "drwx------ 1 root root 4096 11月 27 15:25 .\n",
      "drwxr-xr-x 1 root root 4096 11月 27 15:25 ..\n",
      "-rw-r--r-- 1 root root 3303 11月 17 21:05 .bashrc\n",
      "drwxr-xr-x 1 root root 4096 11月 27 15:28 .cache\n",
      "drwxr-xr-x 1 root root 4096 11月 27 15:28 .config\n",
      "drwxr-xr-x 3 root root 4096 11月 27 15:27 .ipython\n",
      "drwxr-xr-x 4 root root 4096 11月 27 15:25 .jupyter\n",
      "drwxr-xr-x 3 root root 4096 11月 27 15:25 .local\n",
      "drwxr-xr-x 8 root root 4096 11月 17 21:05 .nvm\n",
      "drwxr-xr-x 2 root root 4096 11月 27 15:25 .pip\n",
      "drwxr-xr-x 2 root root 4096 11月 27 15:25 .prestart.d\n",
      "-rw-r--r-- 1 root root  161  7月  9  2019 .profile\n",
      "-rwxr-xr-x 1 root root  125 11月 27 15:25 .vimrc\n",
      "drwxr-xr-x 3 root root 4096 11月 27 15:25 .vscode\n",
      "-rw-r--r-- 1 root root  336  6月  5 21:06 .wget-hsts\n",
      "总计 20\n",
      "drwxr-xr-x 1 root root 4096 11月 27 15:25 .\n",
      "drwxr-xr-x 1 root root 4096 11月 27 15:25 ..\n",
      "drwxrwxrwt 3 root root  100 11月 27 15:25 .alibabacloud\n",
      "drwxrwxrwt 3 root root  100 11月 27 15:25 .credential-0\n",
      "drwxrwxrwx 2 root root    0 11月 27 15:25 data\n",
      "drwxr-xr-x 2 root root 4096 11月 27 15:25 dynamic\n",
      "drwxr-xr-x 6 root root 4096 11月 27 15:42 systemDisk\n",
      "drwxr-xr-x 6 root root 4096 11月 27 15:42 workspace\n",
      "总计 16\n",
      "drwxr-xr-x 1 root root 4096 11月 27 15:25 .\n",
      "drwxr-xr-x 1 root root 4096 11月 27 15:25 ..\n",
      "drwxr-xr-x 4 root root 4096 11月 27 15:25 admin\n",
      "drwxr-xr-x 3 root root 4096 11月 27 15:25 pai\n"
     ]
    }
   ],
   "source": [
    "!pwd\n",
    "!ls -al /\n",
    "!ls -al /root\n",
    "!ls -al /mnt\n",
    "!ls -al /home\n"
   ]
  },
  {
   "cell_type": "code",
   "execution_count": null,
   "id": "shT8NS69UbCl",
   "metadata": {
    "colab": {
     "base_uri": "https://localhost:8080/"
    },
    "id": "shT8NS69UbCl",
    "outputId": "7b2a5023-9358-4f17-9631-f545bb00ec41",
    "scrolled": true,
    "tags": []
   },
   "outputs": [],
   "source": [
    "import sys, os, textwrap, subprocess, torch\n",
    "\n",
    "!nvidia-smi\n",
    "print(\"Python version:\", sys.version)\n",
    "\n",
    "# 建议先回到 /content\n",
    "# %cd /content\n",
    "\n",
    "# # 克隆 Ultralight-Digital-Human 仓库\n",
    "# !git clone https://github.com/anliyuan/Ultralight-Digital-Human.git\n",
    "# %cd /content/Ultralight-Digital-Human\n",
    "# !ls\n",
    "\n"
   ]
  },
  {
   "cell_type": "markdown",
   "id": "7Pudp7PGUfmQ",
   "metadata": {
    "id": "7Pudp7PGUfmQ"
   },
   "source": [
    "安装依赖"
   ]
  },
  {
   "cell_type": "code",
   "execution_count": 3,
   "id": "4j-KFXZBUgQM",
   "metadata": {
    "ExecutionIndicator": {
     "show": false
    },
    "colab": {
     "base_uri": "https://localhost:8080/"
    },
    "collapsed": true,
    "execution": {
     "iopub.execute_input": "2025-11-27T07:31:52.753693Z",
     "iopub.status.busy": "2025-11-27T07:31:52.753464Z",
     "iopub.status.idle": "2025-11-27T07:36:52.418977Z",
     "shell.execute_reply": "2025-11-27T07:36:52.418333Z",
     "shell.execute_reply.started": "2025-11-27T07:31:52.753671Z"
    },
    "id": "4j-KFXZBUgQM",
    "jupyter": {
     "outputs_hidden": true
    },
    "outputId": "fb247017-3918-426c-f9c5-ab43dcf66278",
    "scrolled": true,
    "tags": []
   },
   "outputs": [
    {
     "name": "stdout",
     "output_type": "stream",
     "text": [
      "/mnt/workspace/content/drive/MyDrive/Ultralight-Digital-Human\n",
      "Torch version: 2.8.0+cu128\n",
      "Numpy version: 1.26.4\n",
      "Looking in indexes: https://mirrors.aliyun.com/pypi/simple/\n",
      "Requirement already satisfied: pip in /usr/local/lib/python3.11/site-packages (23.3.2)\n",
      "Collecting pip\n",
      "  Downloading https://mirrors.aliyun.com/pypi/packages/44/3c/d717024885424591d5376220b5e836c2d5293ce2011523c9de23ff7bf068/pip-25.3-py3-none-any.whl (1.8 MB)\n",
      "\u001b[2K     \u001b[90m━━━━━━━━━━━━━━━━━━━━━━━━━━━━━━━━━━━━━━━━\u001b[0m \u001b[32m1.8/1.8 MB\u001b[0m \u001b[31m738.0 kB/s\u001b[0m eta \u001b[36m0:00:00\u001b[0ma \u001b[36m0:00:01\u001b[0m\n",
      "\u001b[?25hInstalling collected packages: pip\n",
      "  Attempting uninstall: pip\n",
      "    Found existing installation: pip 23.3.2\n",
      "    Uninstalling pip-23.3.2:\n",
      "      Successfully uninstalled pip-23.3.2\n",
      "Successfully installed pip-25.3\n",
      "\u001b[33mWARNING: Running pip as the 'root' user can result in broken permissions and conflicting behaviour with the system package manager. It is recommended to use a virtual environment instead: https://pip.pypa.io/warnings/venv\u001b[0m\u001b[33m\n",
      "\u001b[0mLooking in indexes: https://mirrors.aliyun.com/pypi/simple/\n",
      "Collecting mkl\n",
      "  Downloading https://mirrors.aliyun.com/pypi/packages/6d/b4/ef531295ed33b929c6c5214421eeebe370f1be22536b6956b4aaf18fdbc5/mkl-2025.3.0-py2.py3-none-manylinux_2_28_x86_64.whl (195.0 MB)\n",
      "\u001b[2K     \u001b[90m━━━━━━━━━━━━━━━━━━━━━━━━━━━━━━━━━━━━━━━━\u001b[0m \u001b[32m195.0/195.0 MB\u001b[0m \u001b[31m1.2 MB/s\u001b[0m  \u001b[33m0:02:49\u001b[0m0:00:01\u001b[0m00:05\u001b[0m\n",
      "\u001b[?25hRequirement already satisfied: opencv-python in /usr/local/lib/python3.11/site-packages (4.11.0.86)\n",
      "Requirement already satisfied: transformers in /usr/local/lib/python3.11/site-packages (4.57.1)\n",
      "Requirement already satisfied: soundfile in /usr/local/lib/python3.11/site-packages (0.13.1)\n",
      "Requirement already satisfied: librosa in /usr/local/lib/python3.11/site-packages (0.11.0)\n",
      "Collecting onnxruntime\n",
      "  Downloading https://mirrors.aliyun.com/pypi/packages/e9/80/113381ba832d5e777accedc6cb41d10f9eca82321ae31ebb6bcede530cea/onnxruntime-1.23.2-cp311-cp311-manylinux_2_27_x86_64.manylinux_2_28_x86_64.whl (17.4 MB)\n",
      "\u001b[2K     \u001b[90m━━━━━━━━━━━━━━━━━━━━━━━━━━━━━━━━━━━━━━━━\u001b[0m \u001b[32m17.4/17.4 MB\u001b[0m \u001b[31m1.3 MB/s\u001b[0m  \u001b[33m0:00:13\u001b[0mm0:00:01\u001b[0m00:01\u001b[0m\n",
      "\u001b[?25hRequirement already satisfied: tqdm in /usr/local/lib/python3.11/site-packages (4.67.1)\n",
      "Requirement already satisfied: einops in /usr/local/lib/python3.11/site-packages (0.8.1)\n",
      "Requirement already satisfied: timm in /usr/local/lib/python3.11/site-packages (1.0.22)\n",
      "Collecting wget\n",
      "  Downloading https://mirrors.aliyun.com/pypi/packages/47/6a/62e288da7bcda82b935ff0c6cfe542970f04e29c756b0e147251b2fb251f/wget-3.2.zip (10 kB)\n",
      "  Installing build dependencies ... \u001b[?25ldone\n",
      "\u001b[?25h  Getting requirements to build wheel ... \u001b[?25ldone\n",
      "\u001b[?25h  Preparing metadata (pyproject.toml) ... \u001b[?25ldone\n",
      "\u001b[?25hRequirement already satisfied: matplotlib in /usr/local/lib/python3.11/site-packages (3.10.7)\n",
      "Collecting onemkl-license==2025.3.0 (from mkl)\n",
      "  Downloading https://mirrors.aliyun.com/pypi/packages/88/11/b43e8cde058c368ce7f8f9b1ca9f812f7397e4309148da7d24cb6b81b513/onemkl_license-2025.3.0-py2.py3-none-manylinux_2_28_x86_64.whl (58 kB)\n",
      "Collecting intel-openmp<2026,>=2024 (from mkl)\n",
      "  Downloading https://mirrors.aliyun.com/pypi/packages/da/ad/72e2fb7e30f5fd2b7650b721c5979cf2a614538fd99afb45672b31157fb9/intel_openmp-2025.3.1-py2.py3-none-manylinux_2_28_x86_64.whl (74.3 MB)\n",
      "\u001b[2K     \u001b[90m━━━━━━━━━━━━━━━━━━━━━━━━━━━━━━━━━━━━━━━━\u001b[0m \u001b[32m74.3/74.3 MB\u001b[0m \u001b[31m1.2 MB/s\u001b[0m  \u001b[33m0:01:00\u001b[0mm0:00:01\u001b[0m00:02\u001b[0m\n",
      "\u001b[?25hCollecting tbb==2022.* (from mkl)\n",
      "  Downloading https://mirrors.aliyun.com/pypi/packages/e3/9e/b7f1f7af53580e4e8cf39cf51b14c8e295d767b3ae9d78b5007d6058cfc8/tbb-2022.3.0-py2.py3-none-manylinux_2_28_x86_64.whl (4.2 MB)\n",
      "\u001b[2K     \u001b[90m━━━━━━━━━━━━━━━━━━━━━━━━━━━━━━━━━━━━━━━━\u001b[0m \u001b[32m4.2/4.2 MB\u001b[0m \u001b[31m1.4 MB/s\u001b[0m  \u001b[33m0:00:02\u001b[0m eta \u001b[36m0:00:01\u001b[0m\n",
      "\u001b[?25hCollecting intel-cmplr-lib-ur==2025.3.1 (from intel-openmp<2026,>=2024->mkl)\n",
      "  Downloading https://mirrors.aliyun.com/pypi/packages/70/9a/a338de7fc24087c40d38401372618c8465103795baefe941eea3acf55678/intel_cmplr_lib_ur-2025.3.1-py2.py3-none-manylinux_2_28_x86_64.whl (30.8 MB)\n",
      "\u001b[2K     \u001b[90m━━━━━━━━━━━━━━━━━━━━━━━━━━━━━━━━━━━━━━━━\u001b[0m \u001b[32m30.8/30.8 MB\u001b[0m \u001b[31m1.0 MB/s\u001b[0m  \u001b[33m0:00:30\u001b[0mm0:00:01\u001b[0m00:01\u001b[0mm\n",
      "\u001b[?25hCollecting umf==1.0.* (from intel-cmplr-lib-ur==2025.3.1->intel-openmp<2026,>=2024->mkl)\n",
      "  Downloading https://mirrors.aliyun.com/pypi/packages/27/8e/4a90b6aa955268988e7491f502b7ac2bd65cb954b4979bfcc892cf019b50/umf-1.0.2-py2.py3-none-manylinux_2_28_x86_64.whl (359 kB)\n",
      "Collecting tcmlib==1.* (from tbb==2022.*->mkl)\n",
      "  Downloading https://mirrors.aliyun.com/pypi/packages/a1/a4/38e8b5a27b66ab286168ba6c449771ed71d71ec76524e7f12401474a5151/tcmlib-1.4.1-py2.py3-none-manylinux_2_28_x86_64.whl (2.7 MB)\n",
      "\u001b[2K     \u001b[90m━━━━━━━━━━━━━━━━━━━━━━━━━━━━━━━━━━━━━━━━\u001b[0m \u001b[32m2.7/2.7 MB\u001b[0m \u001b[31m1.3 MB/s\u001b[0m  \u001b[33m0:00:02\u001b[0m eta \u001b[36m0:00:01\u001b[0m0m\n",
      "\u001b[?25hRequirement already satisfied: numpy>=1.21.2 in /usr/local/lib/python3.11/site-packages (from opencv-python) (1.26.4)\n",
      "Requirement already satisfied: filelock in /usr/local/lib/python3.11/site-packages (from transformers) (3.20.0)\n",
      "Requirement already satisfied: huggingface-hub<1.0,>=0.34.0 in /usr/local/lib/python3.11/site-packages (from transformers) (0.36.0)\n",
      "Requirement already satisfied: packaging>=20.0 in /usr/local/lib/python3.11/site-packages (from transformers) (25.0)\n",
      "Requirement already satisfied: pyyaml>=5.1 in /usr/local/lib/python3.11/site-packages (from transformers) (6.0.3)\n",
      "Requirement already satisfied: regex!=2019.12.17 in /usr/local/lib/python3.11/site-packages (from transformers) (2025.11.3)\n",
      "Requirement already satisfied: requests in /usr/local/lib/python3.11/site-packages (from transformers) (2.32.5)\n",
      "Requirement already satisfied: tokenizers<=0.23.0,>=0.22.0 in /usr/local/lib/python3.11/site-packages (from transformers) (0.22.1)\n",
      "Requirement already satisfied: safetensors>=0.4.3 in /usr/local/lib/python3.11/site-packages (from transformers) (0.6.2)\n",
      "Requirement already satisfied: fsspec>=2023.5.0 in /usr/local/lib/python3.11/site-packages (from huggingface-hub<1.0,>=0.34.0->transformers) (2025.3.0)\n",
      "Requirement already satisfied: typing-extensions>=3.7.4.3 in /usr/local/lib/python3.11/site-packages (from huggingface-hub<1.0,>=0.34.0->transformers) (4.15.0)\n",
      "Requirement already satisfied: hf-xet<2.0.0,>=1.1.3 in /usr/local/lib/python3.11/site-packages (from huggingface-hub<1.0,>=0.34.0->transformers) (1.2.0)\n",
      "Requirement already satisfied: cffi>=1.0 in /usr/local/lib/python3.11/site-packages (from soundfile) (2.0.0)\n",
      "Requirement already satisfied: audioread>=2.1.9 in /usr/local/lib/python3.11/site-packages (from librosa) (3.1.0)\n",
      "Requirement already satisfied: numba>=0.51.0 in /usr/local/lib/python3.11/site-packages (from librosa) (0.61.2)\n",
      "Requirement already satisfied: scipy>=1.6.0 in /usr/local/lib/python3.11/site-packages (from librosa) (1.16.3)\n",
      "Requirement already satisfied: scikit-learn>=1.1.0 in /usr/local/lib/python3.11/site-packages (from librosa) (1.7.2)\n",
      "Requirement already satisfied: joblib>=1.0 in /usr/local/lib/python3.11/site-packages (from librosa) (1.5.2)\n",
      "Requirement already satisfied: decorator>=4.3.0 in /usr/local/lib/python3.11/site-packages (from librosa) (5.2.1)\n",
      "Requirement already satisfied: pooch>=1.1 in /usr/local/lib/python3.11/site-packages (from librosa) (1.8.2)\n",
      "Requirement already satisfied: soxr>=0.3.2 in /usr/local/lib/python3.11/site-packages (from librosa) (1.0.0)\n",
      "Requirement already satisfied: lazy_loader>=0.1 in /usr/local/lib/python3.11/site-packages (from librosa) (0.4)\n",
      "Requirement already satisfied: msgpack>=1.0 in /usr/local/lib/python3.11/site-packages (from librosa) (1.1.2)\n",
      "Collecting coloredlogs (from onnxruntime)\n",
      "  Downloading https://mirrors.aliyun.com/pypi/packages/a7/06/3d6badcf13db419e25b07041d9c7b4a2c331d3f4e7134445ec5df57714cd/coloredlogs-15.0.1-py2.py3-none-any.whl (46 kB)\n",
      "Collecting flatbuffers (from onnxruntime)\n",
      "  Downloading https://mirrors.aliyun.com/pypi/packages/ee/1b/00a78aa2e8fbd63f9af08c9c19e6deb3d5d66b4dda677a0f61654680ee89/flatbuffers-25.9.23-py2.py3-none-any.whl (30 kB)\n",
      "Requirement already satisfied: protobuf in /usr/local/lib/python3.11/site-packages (from onnxruntime) (6.33.1)\n",
      "Requirement already satisfied: sympy in /usr/local/lib/python3.11/site-packages (from onnxruntime) (1.14.0)\n",
      "Requirement already satisfied: torch in /usr/local/lib/python3.11/site-packages (from timm) (2.8.0)\n",
      "Requirement already satisfied: torchvision in /usr/local/lib/python3.11/site-packages (from timm) (0.23.0)\n",
      "Requirement already satisfied: contourpy>=1.0.1 in /usr/local/lib/python3.11/site-packages (from matplotlib) (1.3.3)\n",
      "Requirement already satisfied: cycler>=0.10 in /usr/local/lib/python3.11/site-packages (from matplotlib) (0.12.1)\n",
      "Requirement already satisfied: fonttools>=4.22.0 in /usr/local/lib/python3.11/site-packages (from matplotlib) (4.60.1)\n",
      "Requirement already satisfied: kiwisolver>=1.3.1 in /usr/local/lib/python3.11/site-packages (from matplotlib) (1.4.9)\n",
      "Requirement already satisfied: pillow>=8 in /usr/local/lib/python3.11/site-packages (from matplotlib) (11.3.0)\n",
      "Requirement already satisfied: pyparsing>=3 in /usr/local/lib/python3.11/site-packages (from matplotlib) (3.2.5)\n",
      "Requirement already satisfied: python-dateutil>=2.7 in /usr/local/lib/python3.11/site-packages (from matplotlib) (2.9.0.post0)\n",
      "Requirement already satisfied: pycparser in /usr/local/lib/python3.11/site-packages (from cffi>=1.0->soundfile) (2.23)\n",
      "Requirement already satisfied: llvmlite<0.45,>=0.44.0dev0 in /usr/local/lib/python3.11/site-packages (from numba>=0.51.0->librosa) (0.44.0)\n",
      "Requirement already satisfied: platformdirs>=2.5.0 in /usr/local/lib/python3.11/site-packages (from pooch>=1.1->librosa) (4.5.0)\n",
      "Requirement already satisfied: six>=1.5 in /usr/local/lib/python3.11/site-packages (from python-dateutil>=2.7->matplotlib) (1.17.0)\n",
      "Requirement already satisfied: charset_normalizer<4,>=2 in /usr/local/lib/python3.11/site-packages (from requests->transformers) (3.4.4)\n",
      "Requirement already satisfied: idna<4,>=2.5 in /usr/local/lib/python3.11/site-packages (from requests->transformers) (3.11)\n",
      "Requirement already satisfied: urllib3<3,>=1.21.1 in /usr/local/lib/python3.11/site-packages (from requests->transformers) (2.5.0)\n",
      "Requirement already satisfied: certifi>=2017.4.17 in /usr/local/lib/python3.11/site-packages (from requests->transformers) (2025.11.12)\n",
      "Requirement already satisfied: threadpoolctl>=3.1.0 in /usr/local/lib/python3.11/site-packages (from scikit-learn>=1.1.0->librosa) (3.6.0)\n",
      "Collecting humanfriendly>=9.1 (from coloredlogs->onnxruntime)\n",
      "  Downloading https://mirrors.aliyun.com/pypi/packages/f0/0f/310fb31e39e2d734ccaa2c0fb981ee41f7bd5056ce9bc29b2248bd569169/humanfriendly-10.0-py2.py3-none-any.whl (86 kB)\n",
      "Requirement already satisfied: mpmath<1.4,>=1.1.0 in /usr/local/lib/python3.11/site-packages (from sympy->onnxruntime) (1.3.0)\n",
      "Requirement already satisfied: networkx in /usr/local/lib/python3.11/site-packages (from torch->timm) (3.5)\n",
      "Requirement already satisfied: jinja2 in /usr/local/lib/python3.11/site-packages (from torch->timm) (3.1.6)\n",
      "Requirement already satisfied: nvidia-cuda-nvrtc-cu12==12.8.93 in /usr/local/lib/python3.11/site-packages (from torch->timm) (12.8.93)\n",
      "Requirement already satisfied: nvidia-cuda-runtime-cu12==12.8.90 in /usr/local/lib/python3.11/site-packages (from torch->timm) (12.8.90)\n",
      "Requirement already satisfied: nvidia-cuda-cupti-cu12==12.8.90 in /usr/local/lib/python3.11/site-packages (from torch->timm) (12.8.90)\n",
      "Requirement already satisfied: nvidia-cudnn-cu12==9.10.2.21 in /usr/local/lib/python3.11/site-packages (from torch->timm) (9.10.2.21)\n",
      "Requirement already satisfied: nvidia-cublas-cu12==12.8.4.1 in /usr/local/lib/python3.11/site-packages (from torch->timm) (12.8.4.1)\n",
      "Requirement already satisfied: nvidia-cufft-cu12==11.3.3.83 in /usr/local/lib/python3.11/site-packages (from torch->timm) (11.3.3.83)\n",
      "Requirement already satisfied: nvidia-curand-cu12==10.3.9.90 in /usr/local/lib/python3.11/site-packages (from torch->timm) (10.3.9.90)\n",
      "Requirement already satisfied: nvidia-cusolver-cu12==11.7.3.90 in /usr/local/lib/python3.11/site-packages (from torch->timm) (11.7.3.90)\n",
      "Requirement already satisfied: nvidia-cusparse-cu12==12.5.8.93 in /usr/local/lib/python3.11/site-packages (from torch->timm) (12.5.8.93)\n",
      "Requirement already satisfied: nvidia-cusparselt-cu12==0.7.1 in /usr/local/lib/python3.11/site-packages (from torch->timm) (0.7.1)\n",
      "Requirement already satisfied: nvidia-nccl-cu12==2.27.3 in /usr/local/lib/python3.11/site-packages (from torch->timm) (2.27.3)\n",
      "Requirement already satisfied: nvidia-nvtx-cu12==12.8.90 in /usr/local/lib/python3.11/site-packages (from torch->timm) (12.8.90)\n",
      "Requirement already satisfied: nvidia-nvjitlink-cu12==12.8.93 in /usr/local/lib/python3.11/site-packages (from torch->timm) (12.8.93)\n",
      "Requirement already satisfied: nvidia-cufile-cu12==1.13.1.3 in /usr/local/lib/python3.11/site-packages (from torch->timm) (1.13.1.3)\n",
      "Requirement already satisfied: triton==3.4.0 in /usr/local/lib/python3.11/site-packages (from torch->timm) (3.4.0)\n",
      "Requirement already satisfied: setuptools>=40.8.0 in /usr/local/lib/python3.11/site-packages (from triton==3.4.0->torch->timm) (65.5.1)\n",
      "Requirement already satisfied: MarkupSafe>=2.0 in /usr/local/lib/python3.11/site-packages (from jinja2->torch->timm) (3.0.3)\n",
      "Building wheels for collected packages: wget\n",
      "  Building wheel for wget (pyproject.toml) ... \u001b[?25ldone\n",
      "\u001b[?25h  Created wheel for wget: filename=wget-3.2-py3-none-any.whl size=9685 sha256=fe85978c76e464b1485b43083cce1da374ea99c31fccb1058203025df811f584\n",
      "  Stored in directory: /root/.cache/pip/wheels/a3/7f/7d/7afeb7527735f083c7680011eb17b68da66ef653d8fce6f362\n",
      "Successfully built wget\n",
      "Installing collected packages: wget, tcmlib, onemkl-license, flatbuffers, umf, tbb, humanfriendly, intel-cmplr-lib-ur, coloredlogs, onnxruntime, intel-openmp, mkl\n",
      "\u001b[2K   \u001b[90m━━━━━━━━━━━━━━━━━━━━━━━━━━━━━━━━━━━━━━━━\u001b[0m \u001b[32m12/12\u001b[0m [mkl]32m11/12\u001b[0m [mkl]l-openmp]ib-ur]\n",
      "\u001b[1A\u001b[2KSuccessfully installed coloredlogs-15.0.1 flatbuffers-25.9.23 humanfriendly-10.0 intel-cmplr-lib-ur-2025.3.1 intel-openmp-2025.3.1 mkl-2025.3.0 onemkl-license-2025.3.0 onnxruntime-1.23.2 tbb-2022.3.0 tcmlib-1.4.1 umf-1.0.2 wget-3.2\n",
      "\u001b[33mWARNING: Running pip as the 'root' user can result in broken permissions and conflicting behaviour with the system package manager, possibly rendering your system unusable. It is recommended to use a virtual environment instead: https://pip.pypa.io/warnings/venv. Use the --root-user-action option if you know what you are doing and want to suppress this warning.\u001b[0m\u001b[33m\n",
      "\u001b[0m"
     ]
    }
   ],
   "source": [
    "%cd /mnt/workspace/content/drive/MyDrive/Ultralight-Digital-Human\n",
    "\n",
    "# 不再强行装旧版 torch / numpy，直接用系统已有版本\n",
    "import torch, numpy as np\n",
    "print(\"Torch version:\", torch.__version__)\n",
    "print(\"Numpy version:\", np.__version__)\n",
    "\n",
    "# 安装其余依赖，全部用“不要锁死版本”的形式\n",
    "!pip install -U pip\n",
    "!pip install mkl opencv-python transformers soundfile librosa onnxruntime tqdm einops timm wget matplotlib\n",
    "\n"
   ]
  },
  {
   "cell_type": "code",
   "execution_count": 2,
   "id": "uNLtrRF-S4rq",
   "metadata": {
    "ExecutionIndicator": {
     "show": true
    },
    "colab": {
     "base_uri": "https://localhost:8080/"
    },
    "execution": {
     "iopub.execute_input": "2025-12-01T07:45:04.378207Z",
     "iopub.status.busy": "2025-12-01T07:45:04.378001Z",
     "iopub.status.idle": "2025-12-01T07:45:04.488076Z",
     "shell.execute_reply": "2025-12-01T07:45:04.487506Z",
     "shell.execute_reply.started": "2025-12-01T07:45:04.378189Z"
    },
    "id": "uNLtrRF-S4rq",
    "outputId": "f3bd661e-a6e0-4cff-90a8-0574ae5f0d8e",
    "tags": []
   },
   "outputs": [
    {
     "name": "stdout",
     "output_type": "stream",
     "text": [
      "/mnt/workspace/content/drive/MyDrive/Ultralight-Digital-Human\n",
      "build_stream_data.py  inference.py\t  syncnet.py\n",
      "checkpoint_wenet      landmarks\t\t  test_16k.wav\n",
      "data_dir\t      pth2onnx.py\t  train.py\n",
      "datasetsss.py\t      __pycache__\t  unet.py\n",
      "data_utils\t      README.md\t\t  wenet_result_final.mp4\n",
      "demo\t\t      stream_data\t  wenet_result_silent.mp4\n",
      "dihuman_run.py\t      syncnet_ckpt\n",
      "full_body_img\t      syncnet_ckpt_wenet\n"
     ]
    }
   ],
   "source": [
    "PROJECT_ROOT = \"/mnt/workspace/content/drive/MyDrive/Ultralight-Digital-Human\"\n",
    "%cd $PROJECT_ROOT\n",
    "!ls"
   ]
  },
  {
   "cell_type": "markdown",
   "id": "qD_KtkZdkbHC",
   "metadata": {
    "id": "qD_KtkZdkbHC"
   },
   "source": [
    "删除之前生成的冗余文件"
   ]
  },
  {
   "cell_type": "code",
   "execution_count": 13,
   "id": "jNiN1yd7TYUZ",
   "metadata": {
    "ExecutionIndicator": {
     "show": false
    },
    "execution": {
     "iopub.execute_input": "2025-11-27T07:48:23.386571Z",
     "iopub.status.busy": "2025-11-27T07:48:23.386343Z",
     "iopub.status.idle": "2025-11-27T07:48:23.499562Z",
     "shell.execute_reply": "2025-11-27T07:48:23.498774Z",
     "shell.execute_reply.started": "2025-11-27T07:48:23.386552Z"
    },
    "id": "jNiN1yd7TYUZ",
    "tags": []
   },
   "outputs": [],
   "source": [
    "# !rm -rf /content/drive/MyDrive/Ultralight-Digital-Human/data_dir/full_body_img\n",
    "# !rm -rf /content/drive/MyDrive/Ultralight-Digital-Human/data_dir/landmarks\n",
    "# !rm -rf /content/drive/MyDrive/Ultralight-Digital-Human/data_dir/aud.wav\n",
    "# !rm -rf /content/drive/MyDrive/Ultralight-Digital-Human/data_dir/aud_hu.npy\n",
    "# !rm -rf /mnt/workspace/content/drive/MyDrive/Ultralight-Digital-Human/content\n"
   ]
  },
  {
   "cell_type": "markdown",
   "id": "APGbk1f2WjIR",
   "metadata": {
    "id": "APGbk1f2WjIR"
   },
   "source": [
    "确认 encoder.onnx 已经在 data_utils/"
   ]
  },
  {
   "cell_type": "code",
   "execution_count": 13,
   "id": "7jReuyx2Wiit",
   "metadata": {
    "colab": {
     "base_uri": "https://localhost:8080/"
    },
    "collapsed": true,
    "id": "7jReuyx2Wiit",
    "jupyter": {
     "outputs_hidden": true
    },
    "outputId": "99a5b4b4-0a65-4235-9480-6a7176555aa9"
   },
   "outputs": [
    {
     "name": "stdout",
     "output_type": "stream",
     "text": [
      "/content/drive/MyDrive/Ultralight-Digital-Human\n",
      "Requirement already satisfied: gdown in /usr/local/lib/python3.12/dist-packages (5.2.0)\n",
      "Requirement already satisfied: beautifulsoup4 in /usr/local/lib/python3.12/dist-packages (from gdown) (4.13.5)\n",
      "Requirement already satisfied: filelock in /usr/local/lib/python3.12/dist-packages (from gdown) (3.20.0)\n",
      "Requirement already satisfied: requests[socks] in /usr/local/lib/python3.12/dist-packages (from gdown) (2.32.4)\n",
      "Requirement already satisfied: tqdm in /usr/local/lib/python3.12/dist-packages (from gdown) (4.67.1)\n",
      "Requirement already satisfied: soupsieve>1.2 in /usr/local/lib/python3.12/dist-packages (from beautifulsoup4->gdown) (2.8)\n",
      "Requirement already satisfied: typing-extensions>=4.0.0 in /usr/local/lib/python3.12/dist-packages (from beautifulsoup4->gdown) (4.15.0)\n",
      "Requirement already satisfied: charset_normalizer<4,>=2 in /usr/local/lib/python3.12/dist-packages (from requests[socks]->gdown) (3.4.4)\n",
      "Requirement already satisfied: idna<4,>=2.5 in /usr/local/lib/python3.12/dist-packages (from requests[socks]->gdown) (3.11)\n",
      "Requirement already satisfied: urllib3<3,>=1.21.1 in /usr/local/lib/python3.12/dist-packages (from requests[socks]->gdown) (2.5.0)\n",
      "Requirement already satisfied: certifi>=2017.4.17 in /usr/local/lib/python3.12/dist-packages (from requests[socks]->gdown) (2025.11.12)\n",
      "Requirement already satisfied: PySocks!=1.5.7,>=1.5.6 in /usr/local/lib/python3.12/dist-packages (from requests[socks]->gdown) (1.7.1)\n",
      "Downloading...\n",
      "From (original): https://drive.google.com/uc?id=1e4Z9zS053JEWl6Mj3W9Lbc9GDtzHIg6b\n",
      "From (redirected): https://drive.google.com/uc?id=1e4Z9zS053JEWl6Mj3W9Lbc9GDtzHIg6b&confirm=t&uuid=e614d05c-97d0-4a85-8a28-fd44a29e4ed6\n",
      "To: /content/drive/MyDrive/Ultralight-Digital-Human/data_utils/encoder.onnx\n",
      "100% 115M/115M [00:02<00:00, 46.4MB/s]\n",
      "base_module.py\t\t      FeaturePipeline.py  __pycache__\n",
      "checkpoint_epoch_335.pth.tar  get_landmark.py\t  scrfd_2.5g_kps.onnx\n",
      "conf\t\t\t      hubert.py\t\t  wenet\n",
      "decode_engine_V4.yaml\t      mean_face.txt\t  wenet_infer.py\n",
      "detect_face.py\t\t      pfld_mobileone.py\n",
      "encoder.onnx\t\t      process.py\n"
     ]
    }
   ],
   "source": [
    "%cd $PROJECT_ROOT\n",
    "!pip install gdown\n",
    "\n",
    "# README 提供的 wenet encoder.onnx\n",
    "ENCODER_ID = \"1e4Z9zS053JEWl6Mj3W9Lbc9GDtzHIg6b\"\n",
    "!gdown \"https://drive.google.com/uc?id={ENCODER_ID}\" -O data_utils/encoder.onnx\n",
    "!ls data_utils\n"
   ]
  },
  {
   "cell_type": "markdown",
   "id": "5OsE5A5DRFrt",
   "metadata": {
    "id": "5OsE5A5DRFrt"
   },
   "source": [
    "上传训练视频 + 转成 20fps"
   ]
  },
  {
   "cell_type": "code",
   "execution_count": 14,
   "id": "g_7hZPglt6XF",
   "metadata": {
    "ExecutionIndicator": {
     "show": false
    },
    "colab": {
     "base_uri": "https://localhost:8080/"
    },
    "collapsed": true,
    "id": "g_7hZPglt6XF",
    "jupyter": {
     "outputs_hidden": true
    },
    "outputId": "b61b2810-2e76-42d8-a918-108ed0709408",
    "scrolled": true,
    "tags": []
   },
   "outputs": [
    {
     "name": "stdout",
     "output_type": "stream",
     "text": [
      "/content/drive/MyDrive/Ultralight-Digital-Human\n",
      "ffmpeg version 4.4.2-0ubuntu0.22.04.1 Copyright (c) 2000-2021 the FFmpeg developers\n",
      "  built with gcc 11 (Ubuntu 11.2.0-19ubuntu1)\n",
      "  configuration: --prefix=/usr --extra-version=0ubuntu0.22.04.1 --toolchain=hardened --libdir=/usr/lib/x86_64-linux-gnu --incdir=/usr/include/x86_64-linux-gnu --arch=amd64 --enable-gpl --disable-stripping --enable-gnutls --enable-ladspa --enable-libaom --enable-libass --enable-libbluray --enable-libbs2b --enable-libcaca --enable-libcdio --enable-libcodec2 --enable-libdav1d --enable-libflite --enable-libfontconfig --enable-libfreetype --enable-libfribidi --enable-libgme --enable-libgsm --enable-libjack --enable-libmp3lame --enable-libmysofa --enable-libopenjpeg --enable-libopenmpt --enable-libopus --enable-libpulse --enable-librabbitmq --enable-librubberband --enable-libshine --enable-libsnappy --enable-libsoxr --enable-libspeex --enable-libsrt --enable-libssh --enable-libtheora --enable-libtwolame --enable-libvidstab --enable-libvorbis --enable-libvpx --enable-libwebp --enable-libx265 --enable-libxml2 --enable-libxvid --enable-libzimg --enable-libzmq --enable-libzvbi --enable-lv2 --enable-omx --enable-openal --enable-opencl --enable-opengl --enable-sdl2 --enable-pocketsphinx --enable-librsvg --enable-libmfx --enable-libdc1394 --enable-libdrm --enable-libiec61883 --enable-chromaprint --enable-frei0r --enable-libx264 --enable-shared\n",
      "  libavutil      56. 70.100 / 56. 70.100\n",
      "  libavcodec     58.134.100 / 58.134.100\n",
      "  libavformat    58. 76.100 / 58. 76.100\n",
      "  libavdevice    58. 13.100 / 58. 13.100\n",
      "  libavfilter     7.110.100 /  7.110.100\n",
      "  libswscale      5.  9.100 /  5.  9.100\n",
      "  libswresample   3.  9.100 /  3.  9.100\n",
      "  libpostproc    55.  9.100 / 55.  9.100\n",
      "Input #0, mov,mp4,m4a,3gp,3g2,mj2, from '/content/drive/MyDrive/Ultralight-Digital-Human/data_dir/test.mp4':\n",
      "  Metadata:\n",
      "    major_brand     : isom\n",
      "    minor_version   : 512\n",
      "    compatible_brands: isomiso2avc1mp41\n",
      "    encoder         : Lavf58.29.100\n",
      "    description     : Packed by Bilibili XCoder v2.0.2\n",
      "  Duration: 00:04:24.58, start: 0.000000, bitrate: 2948 kb/s\n",
      "  Stream #0:0(und): Video: h264 (High) (avc1 / 0x31637661), yuv420p(tv, bt709), 1920x1080, 2625 kb/s, 25 fps, 25 tbr, 16k tbn, 50 tbc (default)\n",
      "    Metadata:\n",
      "      handler_name    : VideoHandler\n",
      "      vendor_id       : [0][0][0][0]\n",
      "  Stream #0:1(und): Audio: aac (LC) (mp4a / 0x6134706D), 48000 Hz, stereo, fltp, 317 kb/s (default)\n",
      "    Metadata:\n",
      "      handler_name    : SoundHandler\n",
      "      vendor_id       : [0][0][0][0]\n",
      "\u001b[4;31mAt least one output file must be specified\n",
      "\u001b[0mffmpeg version 4.4.2-0ubuntu0.22.04.1 Copyright (c) 2000-2021 the FFmpeg developers\n",
      "  built with gcc 11 (Ubuntu 11.2.0-19ubuntu1)\n",
      "  configuration: --prefix=/usr --extra-version=0ubuntu0.22.04.1 --toolchain=hardened --libdir=/usr/lib/x86_64-linux-gnu --incdir=/usr/include/x86_64-linux-gnu --arch=amd64 --enable-gpl --disable-stripping --enable-gnutls --enable-ladspa --enable-libaom --enable-libass --enable-libbluray --enable-libbs2b --enable-libcaca --enable-libcdio --enable-libcodec2 --enable-libdav1d --enable-libflite --enable-libfontconfig --enable-libfreetype --enable-libfribidi --enable-libgme --enable-libgsm --enable-libjack --enable-libmp3lame --enable-libmysofa --enable-libopenjpeg --enable-libopenmpt --enable-libopus --enable-libpulse --enable-librabbitmq --enable-librubberband --enable-libshine --enable-libsnappy --enable-libsoxr --enable-libspeex --enable-libsrt --enable-libssh --enable-libtheora --enable-libtwolame --enable-libvidstab --enable-libvorbis --enable-libvpx --enable-libwebp --enable-libx265 --enable-libxml2 --enable-libxvid --enable-libzimg --enable-libzmq --enable-libzvbi --enable-lv2 --enable-omx --enable-openal --enable-opencl --enable-opengl --enable-sdl2 --enable-pocketsphinx --enable-librsvg --enable-libmfx --enable-libdc1394 --enable-libdrm --enable-libiec61883 --enable-chromaprint --enable-frei0r --enable-libx264 --enable-shared\n",
      "  libavutil      56. 70.100 / 56. 70.100\n",
      "  libavcodec     58.134.100 / 58.134.100\n",
      "  libavformat    58. 76.100 / 58. 76.100\n",
      "  libavdevice    58. 13.100 / 58. 13.100\n",
      "  libavfilter     7.110.100 /  7.110.100\n",
      "  libswscale      5.  9.100 /  5.  9.100\n",
      "  libswresample   3.  9.100 /  3.  9.100\n",
      "  libpostproc    55.  9.100 / 55.  9.100\n",
      "Input #0, mov,mp4,m4a,3gp,3g2,mj2, from '/content/drive/MyDrive/Ultralight-Digital-Human/data_dir/test.mp4':\n",
      "  Metadata:\n",
      "    major_brand     : isom\n",
      "    minor_version   : 512\n",
      "    compatible_brands: isomiso2avc1mp41\n",
      "    encoder         : Lavf58.29.100\n",
      "    description     : Packed by Bilibili XCoder v2.0.2\n",
      "  Duration: 00:04:24.58, start: 0.000000, bitrate: 2948 kb/s\n",
      "  Stream #0:0(und): Video: h264 (High) (avc1 / 0x31637661), yuv420p(tv, bt709), 1920x1080, 2625 kb/s, 25 fps, 25 tbr, 16k tbn, 50 tbc (default)\n",
      "    Metadata:\n",
      "      handler_name    : VideoHandler\n",
      "      vendor_id       : [0][0][0][0]\n",
      "  Stream #0:1(und): Audio: aac (LC) (mp4a / 0x6134706D), 48000 Hz, stereo, fltp, 317 kb/s (default)\n",
      "    Metadata:\n",
      "      handler_name    : SoundHandler\n",
      "      vendor_id       : [0][0][0][0]\n",
      "Stream mapping:\n",
      "  Stream #0:0 -> #0:0 (h264 (native) -> h264 (libx264))\n",
      "  Stream #0:1 -> #0:1 (aac (native) -> aac (native))\n",
      "Press [q] to stop, [?] for help\n",
      "\u001b[1;36m[libx264 @ 0x57092d0cc680] \u001b[0musing cpu capabilities: MMX2 SSE2Fast SSSE3 SSE4.2 AVX FMA3 BMI2 AVX2 AVX512\n",
      "\u001b[1;36m[libx264 @ 0x57092d0cc680] \u001b[0mprofile High, level 4.0, 4:2:0, 8-bit\n",
      "\u001b[1;36m[libx264 @ 0x57092d0cc680] \u001b[0m264 - core 163 r3060 5db6aa6 - H.264/MPEG-4 AVC codec - Copyleft 2003-2021 - http://www.videolan.org/x264.html - options: cabac=1 ref=3 deblock=1:0:0 analyse=0x3:0x113 me=hex subme=7 psy=1 psy_rd=1.00:0.00 mixed_ref=1 me_range=16 chroma_me=1 trellis=1 8x8dct=1 cqm=0 deadzone=21,11 fast_pskip=1 chroma_qp_offset=-2 threads=3 lookahead_threads=1 sliced_threads=0 nr=0 decimate=1 interlaced=0 bluray_compat=0 constrained_intra=0 bframes=3 b_pyramid=2 b_adapt=1 b_bias=0 direct=1 weightb=1 open_gop=0 weightp=2 keyint=250 keyint_min=20 scenecut=40 intra_refresh=0 rc_lookahead=40 rc=crf mbtree=1 crf=23.0 qcomp=0.60 qpmin=0 qpmax=69 qpstep=4 ip_ratio=1.40 aq=1:1.00\n",
      "Output #0, mp4, to '/content/drive/MyDrive/Ultralight-Digital-Human/data_dir/test_20fps.mp4':\n",
      "  Metadata:\n",
      "    major_brand     : isom\n",
      "    minor_version   : 512\n",
      "    compatible_brands: isomiso2avc1mp41\n",
      "    description     : Packed by Bilibili XCoder v2.0.2\n",
      "    encoder         : Lavf58.76.100\n",
      "  Stream #0:0(und): Video: h264 (avc1 / 0x31637661), yuv420p(tv, bt709, progressive), 1920x1080, q=2-31, 20 fps, 10240 tbn (default)\n",
      "    Metadata:\n",
      "      handler_name    : VideoHandler\n",
      "      vendor_id       : [0][0][0][0]\n",
      "      encoder         : Lavc58.134.100 libx264\n",
      "    Side data:\n",
      "      cpb: bitrate max/min/avg: 0/0/0 buffer size: 0 vbv_delay: N/A\n",
      "  Stream #0:1(und): Audio: aac (LC) (mp4a / 0x6134706D), 48000 Hz, stereo, fltp, 128 kb/s (default)\n",
      "    Metadata:\n",
      "      handler_name    : SoundHandler\n",
      "      vendor_id       : [0][0][0][0]\n",
      "      encoder         : Lavc58.134.100 aac\n",
      "frame= 5291 fps=7.1 q=-1.0 Lsize=   93093kB time=00:04:24.55 bitrate=2882.7kbits/s dup=0 drop=1321 speed=0.354x    \n",
      "video:88747kB audio:4151kB subtitle:0kB other streams:0kB global headers:0kB muxing overhead: 0.210320%\n",
      "\u001b[1;36m[libx264 @ 0x57092d0cc680] \u001b[0mframe I:22    Avg QP:16.75  size: 65850\n",
      "\u001b[1;36m[libx264 @ 0x57092d0cc680] \u001b[0mframe P:1366  Avg QP:19.46  size: 27565\n",
      "\u001b[1;36m[libx264 @ 0x57092d0cc680] \u001b[0mframe B:3903  Avg QP:20.69  size: 13265\n",
      "\u001b[1;36m[libx264 @ 0x57092d0cc680] \u001b[0mconsecutive B-frames:  0.5%  2.2%  4.0% 93.4%\n",
      "\u001b[1;36m[libx264 @ 0x57092d0cc680] \u001b[0mmb I  I16..4: 35.4% 57.7%  6.9%\n",
      "\u001b[1;36m[libx264 @ 0x57092d0cc680] \u001b[0mmb P  I16..4: 20.7% 33.9%  0.5%  P16..4: 23.1%  5.9%  2.2%  0.0%  0.0%    skip:13.8%\n",
      "\u001b[1;36m[libx264 @ 0x57092d0cc680] \u001b[0mmb B  I16..4:  5.0%  6.7%  0.0%  B16..8: 32.1%  3.8%  0.3%  direct: 6.4%  skip:45.5%  L0:48.4% L1:48.4% BI: 3.2%\n",
      "\u001b[1;36m[libx264 @ 0x57092d0cc680] \u001b[0m8x8 transform intra:59.9% inter:91.5%\n",
      "\u001b[1;36m[libx264 @ 0x57092d0cc680] \u001b[0mcoded y,uvDC,uvAC intra: 17.1% 59.4% 7.5% inter: 7.9% 28.1% 0.5%\n",
      "\u001b[1;36m[libx264 @ 0x57092d0cc680] \u001b[0mi16 v,h,dc,p: 29% 37% 15% 18%\n",
      "\u001b[1;36m[libx264 @ 0x57092d0cc680] \u001b[0mi8 v,h,dc,ddl,ddr,vr,hd,vl,hu: 34% 18% 37%  3%  1%  1%  1%  1%  2%\n",
      "\u001b[1;36m[libx264 @ 0x57092d0cc680] \u001b[0mi4 v,h,dc,ddl,ddr,vr,hd,vl,hu: 22% 38% 20%  3%  4%  5%  5%  2%  2%\n",
      "\u001b[1;36m[libx264 @ 0x57092d0cc680] \u001b[0mi8c dc,h,v,p: 47% 29% 20%  4%\n",
      "\u001b[1;36m[libx264 @ 0x57092d0cc680] \u001b[0mWeighted P-Frames: Y:0.0% UV:0.0%\n",
      "\u001b[1;36m[libx264 @ 0x57092d0cc680] \u001b[0mref P L0: 57.4%  9.9% 21.4% 11.3%\n",
      "\u001b[1;36m[libx264 @ 0x57092d0cc680] \u001b[0mref B L0: 86.2%  9.8%  4.1%\n",
      "\u001b[1;36m[libx264 @ 0x57092d0cc680] \u001b[0mref B L1: 95.6%  4.4%\n",
      "\u001b[1;36m[libx264 @ 0x57092d0cc680] \u001b[0mkb/s:2748.09\n",
      "\u001b[1;36m[aac @ 0x57092d0ad900] \u001b[0mQavg: 263.662\n"
     ]
    }
   ],
   "source": [
    "%cd $PROJECT_ROOT\n",
    "\n",
    "VIDEO_IN = \"/mnt/workspace/content/drive/MyDrive/Ultralight-Digital-Human/data_dir/test.mp4\"          # 训练视频文件名\n",
    "VIDEO_20 = \"/mnt/workspace/content/drive/MyDrive/Ultralight-Digital-Human/data_dir/test_20fps.mp4\"    # 转码后的文件\n",
    "\n",
    "# 看原始信息（可选）\n",
    "!ffmpeg -i $VIDEO_IN\n",
    "\n",
    "# 转成 20fps（如果本来就是 20fps，这步可以跳过，直接用原视频）\n",
    "!ffmpeg -y -i $VIDEO_IN -r 20 $VIDEO_20\n",
    "\n",
    "\n",
    "\n"
   ]
  },
  {
   "cell_type": "markdown",
   "id": "Qc2BJhvTRYPU",
   "metadata": {
    "id": "Qc2BJhvTRYPU"
   },
   "source": [
    "预处理（抽帧 + 关键点 + wenet 音频特征）\n"
   ]
  },
  {
   "cell_type": "code",
   "execution_count": 17,
   "id": "Qa0xcULXxol1",
   "metadata": {
    "ExecutionIndicator": {
     "show": true
    },
    "colab": {
     "base_uri": "https://localhost:8080/"
    },
    "execution": {
     "iopub.execute_input": "2025-11-27T07:52:03.824657Z",
     "iopub.status.busy": "2025-11-27T07:52:03.824418Z",
     "iopub.status.idle": "2025-11-27T08:00:18.624347Z",
     "shell.execute_reply": "2025-11-27T08:00:18.623708Z",
     "shell.execute_reply.started": "2025-11-27T07:52:03.824628Z"
    },
    "id": "Qa0xcULXxol1",
    "outputId": "64f503a7-59cf-4323-d864-f8ff3c571050",
    "scrolled": true,
    "tags": []
   },
   "outputs": [
    {
     "name": "stdout",
     "output_type": "stream",
     "text": [
      "/mnt/workspace/content/drive/MyDrive/Ultralight-Digital-Human/data_utils\n",
      "[INFO] ===== extract audio from /mnt/workspace/content/drive/MyDrive/Ultralight-Digital-Human/data_dir/test_20fps.mp4 to /mnt/workspace/content/drive/MyDrive/Ultralight-Digital-Human/data_dir/aud.wav =====\n",
      "ffmpeg version 4.4.2-0ubuntu0.22.04.1 Copyright (c) 2000-2021 the FFmpeg developers\n",
      "  built with gcc 11 (Ubuntu 11.2.0-19ubuntu1)\n",
      "  configuration: --prefix=/usr --extra-version=0ubuntu0.22.04.1 --toolchain=hardened --libdir=/usr/lib/x86_64-linux-gnu --incdir=/usr/include/x86_64-linux-gnu --arch=amd64 --enable-gpl --disable-stripping --enable-gnutls --enable-ladspa --enable-libaom --enable-libass --enable-libbluray --enable-libbs2b --enable-libcaca --enable-libcdio --enable-libcodec2 --enable-libdav1d --enable-libflite --enable-libfontconfig --enable-libfreetype --enable-libfribidi --enable-libgme --enable-libgsm --enable-libjack --enable-libmp3lame --enable-libmysofa --enable-libopenjpeg --enable-libopenmpt --enable-libopus --enable-libpulse --enable-librabbitmq --enable-librubberband --enable-libshine --enable-libsnappy --enable-libsoxr --enable-libspeex --enable-libsrt --enable-libssh --enable-libtheora --enable-libtwolame --enable-libvidstab --enable-libvorbis --enable-libvpx --enable-libwebp --enable-libx265 --enable-libxml2 --enable-libxvid --enable-libzimg --enable-libzmq --enable-libzvbi --enable-lv2 --enable-omx --enable-openal --enable-opencl --enable-opengl --enable-sdl2 --enable-pocketsphinx --enable-librsvg --enable-libmfx --enable-libdc1394 --enable-libdrm --enable-libiec61883 --enable-chromaprint --enable-frei0r --enable-libx264 --enable-shared\n",
      "  libavutil      56. 70.100 / 56. 70.100\n",
      "  libavcodec     58.134.100 / 58.134.100\n",
      "  libavformat    58. 76.100 / 58. 76.100\n",
      "  libavdevice    58. 13.100 / 58. 13.100\n",
      "  libavfilter     7.110.100 /  7.110.100\n",
      "  libswscale      5.  9.100 /  5.  9.100\n",
      "  libswresample   3.  9.100 /  3.  9.100\n",
      "  libpostproc    55.  9.100 / 55.  9.100\n",
      "Input #0, mov,mp4,m4a,3gp,3g2,mj2, from '/mnt/workspace/content/drive/MyDrive/Ultralight-Digital-Human/data_dir/test_20fps.mp4':\n",
      "  Metadata:\n",
      "    major_brand     : isom\n",
      "    minor_version   : 512\n",
      "    compatible_brands: isomiso2avc1mp41\n",
      "    encoder         : Lavf58.76.100\n",
      "    description     : Packed by Bilibili XCoder v2.0.2\n",
      "  Duration: 00:04:24.58, start: 0.000000, bitrate: 2882 kb/s\n",
      "  Stream #0:0(und): Video: h264 (High) (avc1 / 0x31637661), yuv420p(tv, bt709), 1920x1080, 2748 kb/s, 20 fps, 20 tbr, 10240 tbn, 40 tbc (default)\n",
      "    Metadata:\n",
      "      handler_name    : VideoHandler\n",
      "      vendor_id       : [0][0][0][0]\n",
      "  Stream #0:1(und): Audio: aac (LC) (mp4a / 0x6134706D), 48000 Hz, stereo, fltp, 128 kb/s (default)\n",
      "    Metadata:\n",
      "      handler_name    : SoundHandler\n",
      "      vendor_id       : [0][0][0][0]\n",
      "Stream mapping:\n",
      "  Stream #0:1 -> #0:0 (aac (native) -> pcm_s16le (native))\n",
      "Press [q] to stop, [?] for help\n",
      "Output #0, wav, to '/mnt/workspace/content/drive/MyDrive/Ultralight-Digital-Human/data_dir/aud.wav':\n",
      "  Metadata:\n",
      "    major_brand     : isom\n",
      "    minor_version   : 512\n",
      "    compatible_brands: isomiso2avc1mp41\n",
      "    description     : Packed by Bilibili XCoder v2.0.2\n",
      "    ISFT            : Lavf58.76.100\n",
      "  Stream #0:0(und): Audio: pcm_s16le ([1][0][0][0] / 0x0001), 16000 Hz, stereo, s16, 512 kb/s (default)\n",
      "    Metadata:\n",
      "      handler_name    : SoundHandler\n",
      "      vendor_id       : [0][0][0][0]\n",
      "      encoder         : Lavc58.134.100 pcm_s16le\n",
      "size=   16536kB time=00:04:24.57 bitrate= 512.0kbits/s speed= 829x    \n",
      "video:0kB audio:16536kB subtitle:0kB other streams:0kB global headers:0kB muxing overhead: 0.000461%\n",
      "[INFO] ===== extracted audio =====\n",
      "extracting images...\n",
      "detecting landmarks...\n",
      "/usr/local/lib/python3.11/site-packages/torch/cuda/__init__.py:63: FutureWarning: The pynvml package is deprecated. Please install nvidia-ml-py instead. If you did not install pynvml directly, please report this to the maintainers of the package that installed pynvml for you.\n",
      "  import pynvml  # type: ignore[import]\n",
      "extracting audio feature...\n",
      "/usr/local/lib/python3.11/site-packages/torch/cuda/__init__.py:63: FutureWarning: The pynvml package is deprecated. Please install nvidia-ml-py instead. If you did not install pynvml directly, please report this to the maintainers of the package that installed pynvml for you.\n",
      "  import pynvml  # type: ignore[import]\n",
      "waveform shape torch.Size([1, 4243936])\n",
      "torch.Size([1, 26523, 80])\n",
      "0.12114405632019043\n",
      "(5293, 16, 512)\n",
      "40.53621816635132\n"
     ]
    }
   ],
   "source": [
    "# 再训练主模型，直接保存到云盘\n",
    "%cd $PROJECT_ROOT/data_utils\n",
    "VIDEO_IN = \"/mnt/workspace/content/drive/MyDrive/Ultralight-Digital-Human/data_dir/test.mp4\"          # 训练视频文件名\n",
    "VIDEO_20 = \"/mnt/workspace/content/drive/MyDrive/Ultralight-Digital-Human/data_dir/test_20fps.mp4\"    # 转码后的文件\n",
    "ASR_MODE = \"wenet\"\n",
    "VIDEO_PATH = VIDEO_20\n",
    "\n",
    "!python process.py $VIDEO_PATH --asr $ASR_MODE\n"
   ]
  },
  {
   "cell_type": "markdown",
   "id": "OYWx7hnHRuJW",
   "metadata": {
    "id": "OYWx7hnHRuJW"
   },
   "source": [
    "训练 SyncNet（用 wenet）"
   ]
  },
  {
   "cell_type": "code",
   "execution_count": 18,
   "id": "wH85ZOv-XBGL",
   "metadata": {
    "colab": {
     "base_uri": "https://localhost:8080/"
    },
    "execution": {
     "iopub.execute_input": "2025-11-27T08:00:18.625233Z",
     "iopub.status.busy": "2025-11-27T08:00:18.625044Z",
     "iopub.status.idle": "2025-11-27T08:27:03.229909Z",
     "shell.execute_reply": "2025-11-27T08:27:03.229243Z",
     "shell.execute_reply.started": "2025-11-27T08:00:18.625214Z"
    },
    "id": "wH85ZOv-XBGL",
    "outputId": "7570790a-6833-4a22-9de5-51cdbffd988b",
    "scrolled": true,
    "tags": []
   },
   "outputs": [
    {
     "name": "stdout",
     "output_type": "stream",
     "text": [
      "/mnt/workspace/content/drive/MyDrive/Ultralight-Digital-Human\n",
      "/usr/local/lib/python3.11/site-packages/torch/cuda/__init__.py:63: FutureWarning: The pynvml package is deprecated. Please install nvidia-ml-py instead. If you did not install pynvml directly, please report this to the maintainers of the package that installed pynvml for you.\n",
      "  import pynvml  # type: ignore[import]\n",
      "0 0.009498539380729198\n",
      "1 0.00571874063462019\n",
      "2 0.004487020429223776\n",
      "3 0.00344818364828825\n",
      "4 0.0026781552005559206\n",
      "5 0.002186375204473734\n",
      "6 0.0019503781804814935\n",
      "7 0.0016864899080246687\n",
      "8 0.0012974105775356293\n",
      "9 0.0013028610264882445\n",
      "10 0.001107160933315754\n",
      "11 0.0009404565207660198\n",
      "12 0.0008399059297516942\n",
      "13 0.0008139574783854187\n",
      "14 0.0006574345752596855\n",
      "15 0.000715642177965492\n",
      "16 0.0005147591000422835\n",
      "17 0.0005117449909448624\n",
      "18 0.0005382719682529569\n",
      "19 0.00039776699850335717\n",
      "20 0.00039221058250404894\n",
      "21 0.0004317555285524577\n",
      "22 0.00034726838930509984\n",
      "23 0.0002955798991024494\n",
      "24 0.00035611455678008497\n",
      "25 0.0003106535878032446\n",
      "26 0.00025281545822508633\n",
      "27 0.00026756315492093563\n",
      "28 0.00027197509189136326\n",
      "29 0.00022520640050061047\n",
      "30 0.00021172192646190524\n",
      "31 0.00022799242287874222\n",
      "32 0.00022994370374362916\n",
      "33 0.00019732172950170934\n",
      "34 0.00017175206448882818\n",
      "35 0.00017873257456813008\n",
      "36 0.00018534439732320607\n",
      "37 0.0001713401434244588\n",
      "38 0.00014862169336993247\n",
      "39 0.00014398814528249204\n"
     ]
    }
   ],
   "source": [
    "%cd $PROJECT_ROOT\n",
    "\n",
    "SYNC_SAVE_DIR = \"./syncnet_ckpt_wenet\"\n",
    "!mkdir -p $SYNC_SAVE_DIR\n",
    "\n",
    "!python syncnet.py \\\n",
    "    --save_dir $SYNC_SAVE_DIR \\\n",
    "    --dataset_dir ./data_dir \\\n",
    "    --asr wenet\n"
   ]
  },
  {
   "cell_type": "markdown",
   "id": "kO7k2sDKR1tR",
   "metadata": {
    "id": "kO7k2sDKR1tR"
   },
   "source": [
    "训练数字人主模型（UNet，用 wenet）"
   ]
  },
  {
   "cell_type": "code",
   "execution_count": 19,
   "id": "faGITnOSXIsV",
   "metadata": {
    "execution": {
     "iopub.execute_input": "2025-11-27T08:27:03.230578Z",
     "iopub.status.busy": "2025-11-27T08:27:03.230397Z",
     "iopub.status.idle": "2025-11-27T08:27:03.344214Z",
     "shell.execute_reply": "2025-11-27T08:27:03.343534Z",
     "shell.execute_reply.started": "2025-11-27T08:27:03.230560Z"
    },
    "id": "faGITnOSXIsV",
    "tags": []
   },
   "outputs": [
    {
     "name": "stdout",
     "output_type": "stream",
     "text": [
      "/mnt/workspace/content/drive/MyDrive/Ultralight-Digital-Human\n",
      "0.pth\t13.pth\t17.pth\t20.pth\t24.pth\t28.pth\t31.pth\t35.pth\t39.pth\t6.pth\n",
      "10.pth\t14.pth\t18.pth\t21.pth\t25.pth\t29.pth\t32.pth\t36.pth\t3.pth\t7.pth\n",
      "11.pth\t15.pth\t19.pth\t22.pth\t26.pth\t2.pth\t33.pth\t37.pth\t4.pth\t8.pth\n",
      "12.pth\t16.pth\t1.pth\t23.pth\t27.pth\t30.pth\t34.pth\t38.pth\t5.pth\t9.pth\n"
     ]
    }
   ],
   "source": [
    "# 先看有哪些 checkpoint：\n",
    "%cd $PROJECT_ROOT\n",
    "!ls syncnet_ckpt_wenet\n"
   ]
  },
  {
   "cell_type": "code",
   "execution_count": 26,
   "id": "m-lUfL41SArL",
   "metadata": {
    "ExecutionIndicator": {
     "show": true
    },
    "execution": {
     "iopub.execute_input": "2025-11-27T09:28:22.468611Z",
     "iopub.status.busy": "2025-11-27T09:28:22.468380Z",
     "iopub.status.idle": "2025-11-27T10:21:53.296428Z",
     "shell.execute_reply": "2025-11-27T10:21:53.295701Z",
     "shell.execute_reply.started": "2025-11-27T09:28:22.468591Z"
    },
    "id": "m-lUfL41SArL",
    "scrolled": true,
    "tags": []
   },
   "outputs": [
    {
     "name": "stdout",
     "output_type": "stream",
     "text": [
      "/mnt/workspace/content/drive/MyDrive/Ultralight-Digital-Human\n",
      "/usr/local/lib/python3.11/site-packages/torch/cuda/__init__.py:63: FutureWarning: The pynvml package is deprecated. Please install nvidia-ml-py instead. If you did not install pynvml directly, please report this to the maintainers of the package that installed pynvml for you.\n",
      "  import pynvml  # type: ignore[import]\n",
      "/usr/local/lib/python3.11/site-packages/torchvision/models/_utils.py:208: UserWarning: The parameter 'pretrained' is deprecated since 0.13 and may be removed in the future, please use 'weights' instead.\n",
      "  warnings.warn(\n",
      "/usr/local/lib/python3.11/site-packages/torchvision/models/_utils.py:223: UserWarning: Arguments other than a weight enum or `None` for 'weights' are deprecated since 0.13 and may be removed in the future. The current behavior is equivalent to passing `weights=VGG19_Weights.IMAGENET1K_V1`. You can also use `weights=VGG19_Weights.DEFAULT` to get the most up-to-date weights.\n",
      "  warnings.warn(msg)\n",
      "Epoch 1/200: 100%|████| 5291/5291 [01:06<00:00, 79.82img/s, loss (batch)=0.0339]\n",
      "Epoch 2/200: 100%|████| 5291/5291 [01:06<00:00, 79.69img/s, loss (batch)=0.0248]\n",
      "Epoch 3/200: 100%|████| 5291/5291 [01:06<00:00, 80.01img/s, loss (batch)=0.0225]\n",
      "Epoch 4/200: 100%|████| 5291/5291 [01:06<00:00, 79.88img/s, loss (batch)=0.0217]\n",
      "Epoch 5/200: 100%|████| 5291/5291 [01:06<00:00, 79.86img/s, loss (batch)=0.0228]\n",
      "Epoch 6/200: 100%|████| 5291/5291 [01:06<00:00, 79.98img/s, loss (batch)=0.0212]\n",
      "Epoch 7/200: 100%|████| 5291/5291 [01:06<00:00, 79.97img/s, loss (batch)=0.0189]\n",
      "Epoch 8/200: 100%|████| 5291/5291 [01:06<00:00, 79.89img/s, loss (batch)=0.0172]\n",
      "Epoch 9/200: 100%|████| 5291/5291 [01:06<00:00, 79.84img/s, loss (batch)=0.0179]\n",
      "Epoch 10/200: 100%|███| 5291/5291 [01:06<00:00, 79.83img/s, loss (batch)=0.0162]\n",
      "Epoch 11/200: 100%|███| 5291/5291 [01:06<00:00, 79.88img/s, loss (batch)=0.0167]\n",
      "Epoch 12/200: 100%|███| 5291/5291 [01:06<00:00, 79.86img/s, loss (batch)=0.0154]\n",
      "Epoch 13/200: 100%|████| 5291/5291 [01:06<00:00, 79.86img/s, loss (batch)=0.016]\n",
      "Epoch 14/200: 100%|███| 5291/5291 [01:06<00:00, 79.85img/s, loss (batch)=0.0163]\n",
      "Epoch 15/200: 100%|███| 5291/5291 [01:06<00:00, 79.85img/s, loss (batch)=0.0164]\n",
      "Epoch 16/200: 100%|███| 5291/5291 [01:06<00:00, 79.81img/s, loss (batch)=0.0163]\n",
      "Epoch 17/200: 100%|███| 5291/5291 [01:06<00:00, 79.89img/s, loss (batch)=0.0151]\n",
      "Epoch 18/200: 100%|███| 5291/5291 [01:06<00:00, 79.88img/s, loss (batch)=0.0142]\n",
      "Epoch 19/200: 100%|███| 5291/5291 [01:06<00:00, 79.87img/s, loss (batch)=0.0159]\n",
      "Epoch 20/200: 100%|███| 5291/5291 [01:06<00:00, 79.81img/s, loss (batch)=0.0151]\n",
      "Epoch 21/200: 100%|███| 5291/5291 [01:06<00:00, 79.81img/s, loss (batch)=0.0137]\n",
      "Epoch 22/200: 100%|███| 5291/5291 [01:06<00:00, 79.84img/s, loss (batch)=0.0137]\n",
      "Epoch 23/200: 100%|███| 5291/5291 [01:06<00:00, 79.86img/s, loss (batch)=0.0146]\n",
      "Epoch 24/200: 100%|████| 5291/5291 [01:06<00:00, 79.89img/s, loss (batch)=0.014]\n",
      "Epoch 25/200: 100%|███| 5291/5291 [01:06<00:00, 79.88img/s, loss (batch)=0.0154]\n",
      "Epoch 26/200: 100%|███| 5291/5291 [01:06<00:00, 79.86img/s, loss (batch)=0.0131]\n",
      "Epoch 27/200: 100%|███| 5291/5291 [01:06<00:00, 79.87img/s, loss (batch)=0.0151]\n",
      "Epoch 28/200: 100%|███| 5291/5291 [01:06<00:00, 79.91img/s, loss (batch)=0.0147]\n",
      "Epoch 29/200: 100%|███| 5291/5291 [01:06<00:00, 79.86img/s, loss (batch)=0.0126]\n",
      "Epoch 30/200: 100%|███| 5291/5291 [01:06<00:00, 79.96img/s, loss (batch)=0.0127]\n",
      "Epoch 31/200: 100%|███| 5291/5291 [01:06<00:00, 79.93img/s, loss (batch)=0.0128]\n",
      "Epoch 32/200: 100%|███| 5291/5291 [01:06<00:00, 79.91img/s, loss (batch)=0.0137]\n",
      "Epoch 33/200: 100%|███| 5291/5291 [01:06<00:00, 79.79img/s, loss (batch)=0.0137]\n",
      "Epoch 34/200: 100%|███| 5291/5291 [01:06<00:00, 79.87img/s, loss (batch)=0.0123]\n",
      "Epoch 35/200: 100%|███| 5291/5291 [01:06<00:00, 79.85img/s, loss (batch)=0.0131]\n",
      "Epoch 36/200: 100%|███| 5291/5291 [01:06<00:00, 79.84img/s, loss (batch)=0.0124]\n",
      "Epoch 37/200: 100%|███| 5291/5291 [01:06<00:00, 79.85img/s, loss (batch)=0.0116]\n",
      "Epoch 38/200: 100%|███| 5291/5291 [01:06<00:00, 79.88img/s, loss (batch)=0.0124]\n",
      "Epoch 39/200: 100%|███| 5291/5291 [01:06<00:00, 79.85img/s, loss (batch)=0.0136]\n",
      "Epoch 40/200: 100%|███| 5291/5291 [01:06<00:00, 79.79img/s, loss (batch)=0.0119]\n",
      "Epoch 41/200: 100%|████| 5291/5291 [01:06<00:00, 79.81img/s, loss (batch)=0.012]\n",
      "Epoch 42/200: 100%|███| 5291/5291 [01:06<00:00, 79.94img/s, loss (batch)=0.0119]\n",
      "Epoch 43/200: 100%|████| 5291/5291 [01:06<00:00, 79.95img/s, loss (batch)=0.012]\n",
      "Epoch 44/200: 100%|███| 5291/5291 [01:06<00:00, 79.96img/s, loss (batch)=0.0115]\n",
      "Epoch 45/200: 100%|███| 5291/5291 [01:06<00:00, 79.96img/s, loss (batch)=0.0111]\n",
      "Epoch 46/200: 100%|███| 5291/5291 [01:06<00:00, 79.86img/s, loss (batch)=0.0118]\n",
      "Epoch 47/200: 100%|███| 5291/5291 [01:06<00:00, 79.89img/s, loss (batch)=0.0116]\n",
      "Epoch 48/200: 100%|███| 5291/5291 [01:06<00:00, 79.84img/s, loss (batch)=0.0122]\n",
      "Epoch 49/200:  39%|█▏ | 2048/5291 [00:25<00:40, 80.59img/s, loss (batch)=0.0107]^C\n",
      "Epoch 49/200:  39%|█▏ | 2048/5291 [00:25<00:40, 79.19img/s, loss (batch)=0.0107]\n",
      "Traceback (most recent call last):\n",
      "  File \"/mnt/workspace/content/drive/MyDrive/Ultralight-Digital-Human/train.py\", line 142, in <module>\n",
      "    train(net, args.epochs, args.batchsize, args.lr)\n",
      "  File \"/mnt/workspace/content/drive/MyDrive/Ultralight-Digital-Human/train.py\", line 100, in train\n",
      "    imgs = imgs.to(device)\n",
      "           ^^^^^^^^^^^^^^^\n",
      "KeyboardInterrupt\n"
     ]
    }
   ],
   "source": [
    "%cd $PROJECT_ROOT\n",
    "\n",
    "SAVE_DIR = \"./checkpoint_wenet\"\n",
    "!mkdir -p $SAVE_DIR\n",
    "\n",
    "!python train.py \\\n",
    "    --dataset_dir ./data_dir \\\n",
    "    --save_dir $SAVE_DIR \\\n",
    "    --asr wenet \\\n",
    "    --use_syncnet \\\n",
    "    --syncnet_checkpoint syncnet_ckpt_wenet/39.pth   #选39.pth\n",
    "\n"
   ]
  },
  {
   "cell_type": "markdown",
   "id": "kqAYlB0JSMUC",
   "metadata": {
    "id": "kqAYlB0JSMUC"
   },
   "source": [
    "准备测试音频（用 wenet 提特征）"
   ]
  },
  {
   "cell_type": "code",
   "execution_count": 30,
   "id": "vzpvxwoYOstd",
   "metadata": {
    "ExecutionIndicator": {
     "show": true
    },
    "execution": {
     "iopub.execute_input": "2025-11-27T10:29:28.077704Z",
     "iopub.status.busy": "2025-11-27T10:29:28.077471Z",
     "iopub.status.idle": "2025-11-27T10:29:32.171506Z",
     "shell.execute_reply": "2025-11-27T10:29:32.170832Z",
     "shell.execute_reply.started": "2025-11-27T10:29:28.077684Z"
    },
    "id": "vzpvxwoYOstd",
    "scrolled": true,
    "tags": []
   },
   "outputs": [
    {
     "name": "stdout",
     "output_type": "stream",
     "text": [
      "/mnt/workspace/content/drive/MyDrive/Ultralight-Digital-Human/data_utils\n",
      "ffmpeg version 4.4.2-0ubuntu0.22.04.1 Copyright (c) 2000-2021 the FFmpeg developers\n",
      "  built with gcc 11 (Ubuntu 11.2.0-19ubuntu1)\n",
      "  configuration: --prefix=/usr --extra-version=0ubuntu0.22.04.1 --toolchain=hardened --libdir=/usr/lib/x86_64-linux-gnu --incdir=/usr/include/x86_64-linux-gnu --arch=amd64 --enable-gpl --disable-stripping --enable-gnutls --enable-ladspa --enable-libaom --enable-libass --enable-libbluray --enable-libbs2b --enable-libcaca --enable-libcdio --enable-libcodec2 --enable-libdav1d --enable-libflite --enable-libfontconfig --enable-libfreetype --enable-libfribidi --enable-libgme --enable-libgsm --enable-libjack --enable-libmp3lame --enable-libmysofa --enable-libopenjpeg --enable-libopenmpt --enable-libopus --enable-libpulse --enable-librabbitmq --enable-librubberband --enable-libshine --enable-libsnappy --enable-libsoxr --enable-libspeex --enable-libsrt --enable-libssh --enable-libtheora --enable-libtwolame --enable-libvidstab --enable-libvorbis --enable-libvpx --enable-libwebp --enable-libx265 --enable-libxml2 --enable-libxvid --enable-libzimg --enable-libzmq --enable-libzvbi --enable-lv2 --enable-omx --enable-openal --enable-opencl --enable-opengl --enable-sdl2 --enable-pocketsphinx --enable-librsvg --enable-libmfx --enable-libdc1394 --enable-libdrm --enable-libiec61883 --enable-chromaprint --enable-frei0r --enable-libx264 --enable-shared\n",
      "  libavutil      56. 70.100 / 56. 70.100\n",
      "  libavcodec     58.134.100 / 58.134.100\n",
      "  libavformat    58. 76.100 / 58. 76.100\n",
      "  libavdevice    58. 13.100 / 58. 13.100\n",
      "  libavfilter     7.110.100 /  7.110.100\n",
      "  libswscale      5.  9.100 /  5.  9.100\n",
      "  libswresample   3.  9.100 /  3.  9.100\n",
      "  libpostproc    55.  9.100 / 55.  9.100\n",
      "\u001b[0;33mGuessed Channel Layout for Input Stream #0.0 : mono\n",
      "\u001b[0mInput #0, wav, from 'mkas.wav':\n",
      "  Duration: 00:00:14.06, bitrate: 352 kb/s\n",
      "  Stream #0:0: Audio: pcm_s16le ([1][0][0][0] / 0x0001), 22050 Hz, mono, s16, 352 kb/s\n",
      "Stream mapping:\n",
      "  Stream #0:0 -> #0:0 (pcm_s16le (native) -> pcm_s16le (native))\n",
      "Press [q] to stop, [?] for help\n",
      "Output #0, wav, to 'test_16k.wav':\n",
      "  Metadata:\n",
      "    ISFT            : Lavf58.76.100\n",
      "  Stream #0:0: Audio: pcm_s16le ([1][0][0][0] / 0x0001), 16000 Hz, mono, s16, 256 kb/s\n",
      "    Metadata:\n",
      "      encoder         : Lavc58.134.100 pcm_s16le\n",
      "size=     439kB time=00:00:14.05 bitrate= 256.1kbits/s speed=3.63e+03x    \n",
      "video:0kB audio:439kB subtitle:0kB other streams:0kB global headers:0kB muxing overhead: 0.017337%\n",
      "/usr/local/lib/python3.11/site-packages/torch/cuda/__init__.py:63: FutureWarning: The pynvml package is deprecated. Please install nvidia-ml-py instead. If you did not install pynvml directly, please report this to the maintainers of the package that installed pynvml for you.\n",
      "  import pynvml  # type: ignore[import]\n",
      "waveform shape torch.Size([1, 235675])\n",
      "torch.Size([1, 1471, 80])\n",
      "0.006090879440307617\n",
      "(282, 16, 512)\n",
      "2.0243139266967773\n",
      "base_module.py\t\t      full_body_img\t process.py\n",
      "checkpoint_epoch_335.pth.tar  get_landmark.py\t __pycache__\n",
      "conf\t\t\t      hubert.py\t\t scrfd_2.5g_kps.onnx\n",
      "decode_engine_V4.yaml\t      landmarks\t\t test_16k.wav\n",
      "detect_face.py\t\t      mean_face.txt\t test_16k_wenet.npy\n",
      "encoder.onnx\t\t      mkas.wav\t\t wenet\n",
      "FeaturePipeline.py\t      pfld_mobileone.py  wenet_infer.py\n"
     ]
    }
   ],
   "source": [
    "%cd $PROJECT_ROOT/data_utils\n",
    "\n",
    "TEST_WAV = \"mkas.wav\"  # 换成真实文件名\n",
    "\n",
    "# 如果采样率不是 16k，可以先转一份：\n",
    "!ffmpeg -y -i $TEST_WAV -ar 16000 test_16k.wav\n",
    "TEST_WAV = \"test_16k.wav\"\n",
    "\n",
    "# 用 wenet 脚本提取特征\n",
    "!python wenet_infer.py $TEST_WAV\n",
    "\n",
    "!ls\n"
   ]
  },
  {
   "cell_type": "markdown",
   "id": "VLTqFv9GSYRJ",
   "metadata": {
    "id": "VLTqFv9GSYRJ"
   },
   "source": [
    "推理（用 wenet 模型 + wenet 特征）"
   ]
  },
  {
   "cell_type": "code",
   "execution_count": 35,
   "id": "g1j15Kp8SY0m",
   "metadata": {
    "ExecutionIndicator": {
     "show": true
    },
    "execution": {
     "iopub.execute_input": "2025-11-27T11:03:07.509590Z",
     "iopub.status.busy": "2025-11-27T11:03:07.509367Z",
     "iopub.status.idle": "2025-11-27T11:03:18.091612Z",
     "shell.execute_reply": "2025-11-27T11:03:18.090920Z",
     "shell.execute_reply.started": "2025-11-27T11:03:07.509570Z"
    },
    "id": "g1j15Kp8SY0m",
    "tags": []
   },
   "outputs": [
    {
     "name": "stdout",
     "output_type": "stream",
     "text": [
      "/mnt/workspace/content/drive/MyDrive/Ultralight-Digital-Human\n",
      "/usr/local/lib/python3.11/site-packages/torch/cuda/__init__.py:63: FutureWarning: The pynvml package is deprecated. Please install nvidia-ml-py instead. If you did not install pynvml directly, please report this to the maintainers of the package that installed pynvml for you.\n",
      "  import pynvml  # type: ignore[import]\n",
      "OpenCV: FFMPEG: tag 0x47504a4d/'MJPG' is not supported with codec id 7 and format 'mp4 / MP4 (MPEG-4 Part 14)'\n",
      "OpenCV: FFMPEG: fallback to use tag 0x7634706d/'mp4v'\n"
     ]
    }
   ],
   "source": [
    "%cd $PROJECT_ROOT\n",
    "\n",
    "ASR_MODE   = \"wenet\"\n",
    "DATASET    = \"./data_dir\"              # 训练时用的视频 data_dir\n",
    "AUDIO_FEAT = \"data_utils/test_16k_wenet.npy\"      # 上一步生成的 npy 文件\n",
    "CKPT       = \"checkpoint_wenet/45.pth\" # 换成你想用的模型\n",
    "OUT_VIDEO  = \"wenet_result_silent.mp4\"\n",
    "\n",
    "!python inference.py \\\n",
    "    --asr $ASR_MODE \\\n",
    "    --dataset $DATASET \\\n",
    "    --audio_feat $AUDIO_FEAT \\\n",
    "    --save_path $OUT_VIDEO \\\n",
    "    --checkpoint $CKPT\n"
   ]
  },
  {
   "cell_type": "markdown",
   "id": "AASCGtmcSkkX",
   "metadata": {
    "id": "AASCGtmcSkkX"
   },
   "source": [
    "用 ffmpeg 合成有声音的视频"
   ]
  },
  {
   "cell_type": "code",
   "execution_count": 36,
   "id": "slwpXNJQSlGA",
   "metadata": {
    "execution": {
     "iopub.execute_input": "2025-11-27T11:03:42.092482Z",
     "iopub.status.busy": "2025-11-27T11:03:42.092243Z",
     "iopub.status.idle": "2025-11-27T11:03:48.797470Z",
     "shell.execute_reply": "2025-11-27T11:03:48.796748Z",
     "shell.execute_reply.started": "2025-11-27T11:03:42.092459Z"
    },
    "id": "slwpXNJQSlGA",
    "scrolled": true,
    "tags": []
   },
   "outputs": [
    {
     "name": "stdout",
     "output_type": "stream",
     "text": [
      "/mnt/workspace/content/drive/MyDrive/Ultralight-Digital-Human\n",
      "ffmpeg version 4.4.2-0ubuntu0.22.04.1 Copyright (c) 2000-2021 the FFmpeg developers\n",
      "  built with gcc 11 (Ubuntu 11.2.0-19ubuntu1)\n",
      "  configuration: --prefix=/usr --extra-version=0ubuntu0.22.04.1 --toolchain=hardened --libdir=/usr/lib/x86_64-linux-gnu --incdir=/usr/include/x86_64-linux-gnu --arch=amd64 --enable-gpl --disable-stripping --enable-gnutls --enable-ladspa --enable-libaom --enable-libass --enable-libbluray --enable-libbs2b --enable-libcaca --enable-libcdio --enable-libcodec2 --enable-libdav1d --enable-libflite --enable-libfontconfig --enable-libfreetype --enable-libfribidi --enable-libgme --enable-libgsm --enable-libjack --enable-libmp3lame --enable-libmysofa --enable-libopenjpeg --enable-libopenmpt --enable-libopus --enable-libpulse --enable-librabbitmq --enable-librubberband --enable-libshine --enable-libsnappy --enable-libsoxr --enable-libspeex --enable-libsrt --enable-libssh --enable-libtheora --enable-libtwolame --enable-libvidstab --enable-libvorbis --enable-libvpx --enable-libwebp --enable-libx265 --enable-libxml2 --enable-libxvid --enable-libzimg --enable-libzmq --enable-libzvbi --enable-lv2 --enable-omx --enable-openal --enable-opencl --enable-opengl --enable-sdl2 --enable-pocketsphinx --enable-librsvg --enable-libmfx --enable-libdc1394 --enable-libdrm --enable-libiec61883 --enable-chromaprint --enable-frei0r --enable-libx264 --enable-shared\n",
      "  libavutil      56. 70.100 / 56. 70.100\n",
      "  libavcodec     58.134.100 / 58.134.100\n",
      "  libavformat    58. 76.100 / 58. 76.100\n",
      "  libavdevice    58. 13.100 / 58. 13.100\n",
      "  libavfilter     7.110.100 /  7.110.100\n",
      "  libswscale      5.  9.100 /  5.  9.100\n",
      "  libswresample   3.  9.100 /  3.  9.100\n",
      "  libpostproc    55.  9.100 / 55.  9.100\n",
      "Input #0, mov,mp4,m4a,3gp,3g2,mj2, from 'wenet_result_silent.mp4':\n",
      "  Metadata:\n",
      "    major_brand     : isom\n",
      "    minor_version   : 512\n",
      "    compatible_brands: isomiso2mp41\n",
      "    encoder         : Lavf59.27.100\n",
      "  Duration: 00:00:14.10, start: 0.000000, bitrate: 14390 kb/s\n",
      "  Stream #0:0(und): Video: mjpeg (Baseline) (mp4v / 0x7634706D), yuvj420p(pc, bt470bg/unknown/unknown), 1920x1080, 14389 kb/s, 20 fps, 20 tbr, 10240 tbn, 10240 tbc (default)\n",
      "    Metadata:\n",
      "      handler_name    : VideoHandler\n",
      "      vendor_id       : [0][0][0][0]\n",
      "\u001b[0;33mGuessed Channel Layout for Input Stream #1.0 : mono\n",
      "\u001b[0mInput #1, wav, from 'test_16k.wav':\n",
      "  Metadata:\n",
      "    encoder         : Lavf58.76.100\n",
      "  Duration: 00:00:14.06, bitrate: 256 kb/s\n",
      "  Stream #1:0: Audio: pcm_s16le ([1][0][0][0] / 0x0001), 16000 Hz, mono, s16, 256 kb/s\n",
      "Stream mapping:\n",
      "  Stream #0:0 -> #0:0 (mjpeg (native) -> h264 (libx264))\n",
      "  Stream #1:0 -> #0:1 (pcm_s16le (native) -> aac (native))\n",
      "Press [q] to stop, [?] for help\n",
      "\u001b[1;36m[libx264 @ 0x5654c1aa3e80] \u001b[0musing cpu capabilities: MMX2 SSE2Fast SSSE3 SSE4.2 AVX FMA3 BMI2 AVX2 AVX512\n",
      "\u001b[1;36m[libx264 @ 0x5654c1aa3e80] \u001b[0mprofile High, level 4.0, 4:2:0, 8-bit\n",
      "\u001b[1;36m[libx264 @ 0x5654c1aa3e80] \u001b[0m264 - core 163 r3060 5db6aa6 - H.264/MPEG-4 AVC codec - Copyleft 2003-2021 - http://www.videolan.org/x264.html - options: cabac=1 ref=3 deblock=1:0:0 analyse=0x3:0x113 me=hex subme=7 psy=1 psy_rd=1.00:0.00 mixed_ref=1 me_range=16 chroma_me=1 trellis=1 8x8dct=1 cqm=0 deadzone=21,11 fast_pskip=1 chroma_qp_offset=-2 threads=12 lookahead_threads=2 sliced_threads=0 nr=0 decimate=1 interlaced=0 bluray_compat=0 constrained_intra=0 bframes=3 b_pyramid=2 b_adapt=1 b_bias=0 direct=1 weightb=1 open_gop=0 weightp=2 keyint=250 keyint_min=20 scenecut=40 intra_refresh=0 rc_lookahead=40 rc=crf mbtree=1 crf=23.0 qcomp=0.60 qpmin=0 qpmax=69 qpstep=4 ip_ratio=1.40 aq=1:1.00\n",
      "Output #0, mp4, to 'wenet_result_final.mp4':\n",
      "  Metadata:\n",
      "    major_brand     : isom\n",
      "    minor_version   : 512\n",
      "    compatible_brands: isomiso2mp41\n",
      "    encoder         : Lavf58.76.100\n",
      "  Stream #0:0(und): Video: h264 (avc1 / 0x31637661), yuvj420p(pc, bt470bg/unknown/unknown, progressive), 1920x1080, q=2-31, 20 fps, 10240 tbn (default)\n",
      "    Metadata:\n",
      "      handler_name    : VideoHandler\n",
      "      vendor_id       : [0][0][0][0]\n",
      "      encoder         : Lavc58.134.100 libx264\n",
      "    Side data:\n",
      "      cpb: bitrate max/min/avg: 0/0/0 buffer size: 0 vbv_delay: N/A\n",
      "  Stream #0:1: Audio: aac (LC) (mp4a / 0x6134706D), 16000 Hz, mono, fltp, 69 kb/s\n",
      "    Metadata:\n",
      "      encoder         : Lavc58.134.100 aac\n",
      "frame=  282 fps= 43 q=-1.0 Lsize=    6285kB time=00:00:14.01 bitrate=3673.2kbits/s speed=2.14x    \n",
      "video:6145kB audio:131kB subtitle:0kB other streams:0kB global headers:0kB muxing overhead: 0.138940%\n",
      "\u001b[1;36m[libx264 @ 0x5654c1aa3e80] \u001b[0mframe I:2     Avg QP:17.09  size: 62840\n",
      "\u001b[1;36m[libx264 @ 0x5654c1aa3e80] \u001b[0mframe P:71    Avg QP:19.38  size: 33772\n",
      "\u001b[1;36m[libx264 @ 0x5654c1aa3e80] \u001b[0mframe B:209   Avg QP:20.56  size: 18029\n",
      "\u001b[1;36m[libx264 @ 0x5654c1aa3e80] \u001b[0mconsecutive B-frames:  0.7%  0.7%  2.1% 96.5%\n",
      "\u001b[1;36m[libx264 @ 0x5654c1aa3e80] \u001b[0mmb I  I16..4: 39.6% 58.5%  1.9%\n",
      "\u001b[1;36m[libx264 @ 0x5654c1aa3e80] \u001b[0mmb P  I16..4: 17.4% 46.5%  0.3%  P16..4: 14.7%  5.4%  2.9%  0.0%  0.0%    skip:12.7%\n",
      "\u001b[1;36m[libx264 @ 0x5654c1aa3e80] \u001b[0mmb B  I16..4:  6.4% 18.8%  0.0%  B16..8: 25.3%  4.1%  0.5%  direct: 6.0%  skip:39.0%  L0:51.0% L1:45.0% BI: 3.9%\n",
      "\u001b[1;36m[libx264 @ 0x5654c1aa3e80] \u001b[0m8x8 transform intra:73.3% inter:89.3%\n",
      "\u001b[1;36m[libx264 @ 0x5654c1aa3e80] \u001b[0mcoded y,uvDC,uvAC intra: 33.0% 67.9% 6.8% inter: 8.3% 27.1% 0.7%\n",
      "\u001b[1;36m[libx264 @ 0x5654c1aa3e80] \u001b[0mi16 v,h,dc,p: 38% 39% 15%  9%\n",
      "\u001b[1;36m[libx264 @ 0x5654c1aa3e80] \u001b[0mi8 v,h,dc,ddl,ddr,vr,hd,vl,hu: 33% 27% 34%  2%  0%  1%  1%  1%  2%\n",
      "\u001b[1;36m[libx264 @ 0x5654c1aa3e80] \u001b[0mi4 v,h,dc,ddl,ddr,vr,hd,vl,hu: 26% 51%  9%  1%  2%  3%  3%  1%  2%\n",
      "\u001b[1;36m[libx264 @ 0x5654c1aa3e80] \u001b[0mi8c dc,h,v,p: 40% 32% 24%  5%\n",
      "\u001b[1;36m[libx264 @ 0x5654c1aa3e80] \u001b[0mWeighted P-Frames: Y:0.0% UV:0.0%\n",
      "\u001b[1;36m[libx264 @ 0x5654c1aa3e80] \u001b[0mref P L0: 53.0% 13.4% 22.2% 11.3%\n",
      "\u001b[1;36m[libx264 @ 0x5654c1aa3e80] \u001b[0mref B L0: 82.6% 12.9%  4.4%\n",
      "\u001b[1;36m[libx264 @ 0x5654c1aa3e80] \u001b[0mref B L1: 94.0%  6.0%\n",
      "\u001b[1;36m[libx264 @ 0x5654c1aa3e80] \u001b[0mkb/s:3569.62\n",
      "\u001b[1;36m[aac @ 0x5654c1aa5b00] \u001b[0mQavg: 13968.617\n"
     ]
    }
   ],
   "source": [
    "%cd $PROJECT_ROOT\n",
    "\n",
    "VIDEO_SILENT = \"wenet_result_silent.mp4\"\n",
    "AUDIO_WAV    = TEST_WAV             # 即 test_16k.wav\n",
    "FINAL_OUT    = \"wenet_result_final.mp4\"\n",
    "\n",
    "!ffmpeg -y -i $VIDEO_SILENT -i $AUDIO_WAV -c:v libx264 -c:a aac $FINAL_OUT\n"
   ]
  },
  {
   "cell_type": "markdown",
   "id": "7fd4bf80-b16e-4917-8d5c-9f67ff9e8d73",
   "metadata": {},
   "source": [
    "拷贝流式推理需要的对应文件"
   ]
  },
  {
   "cell_type": "code",
   "execution_count": 4,
   "id": "011540af-66eb-4e76-bc61-596143839a90",
   "metadata": {
    "ExecutionIndicator": {
     "show": true
    },
    "execution": {
     "iopub.execute_input": "2025-12-01T07:47:47.662026Z",
     "iopub.status.busy": "2025-12-01T07:47:47.661828Z",
     "iopub.status.idle": "2025-12-01T07:48:19.615788Z",
     "shell.execute_reply": "2025-12-01T07:48:19.615171Z",
     "shell.execute_reply.started": "2025-12-01T07:47:47.662006Z"
    },
    "scrolled": true,
    "tags": []
   },
   "outputs": [
    {
     "name": "stdout",
     "output_type": "stream",
     "text": [
      "/mnt/workspace/content/drive/MyDrive/Ultralight-Digital-Human\n",
      "Looking in indexes: https://mirrors.aliyun.com/pypi/simple/\n",
      "Collecting onnx\n",
      "  Downloading https://mirrors.aliyun.com/pypi/packages/d5/61/6c457ee8c3a62a3cad0a4bfa4c5436bb3ac4df90c3551d40bee1224b5b51/onnx-1.19.1-cp311-cp311-manylinux2014_x86_64.manylinux_2_17_x86_64.whl (18.2 MB)\n",
      "\u001b[2K     \u001b[90m━━━━━━━━━━━━━━━━━━━━━━━━━━━━━━━━━━━━━━━━\u001b[0m \u001b[32m18.2/18.2 MB\u001b[0m \u001b[31m1.3 MB/s\u001b[0m  \u001b[33m0:00:14\u001b[0mm0:00:01\u001b[0m00:01\u001b[0m\n",
      "\u001b[?25hRequirement already satisfied: numpy>=1.22 in /usr/local/lib/python3.11/site-packages (from onnx) (1.26.4)\n",
      "Requirement already satisfied: protobuf>=4.25.1 in /usr/local/lib/python3.11/site-packages (from onnx) (6.33.1)\n",
      "Requirement already satisfied: typing_extensions>=4.7.1 in /usr/local/lib/python3.11/site-packages (from onnx) (4.15.0)\n",
      "Collecting ml_dtypes>=0.5.0 (from onnx)\n",
      "  Downloading https://mirrors.aliyun.com/pypi/packages/a9/80/19189ea605017473660e43762dc853d2797984b3c7bf30ce656099add30c/ml_dtypes-0.5.4-cp311-cp311-manylinux_2_27_x86_64.manylinux_2_28_x86_64.whl (5.0 MB)\n",
      "\u001b[2K     \u001b[90m━━━━━━━━━━━━━━━━━━━━━━━━━━━━━━━━━━━━━━━━\u001b[0m \u001b[32m5.0/5.0 MB\u001b[0m \u001b[31m1.2 MB/s\u001b[0m  \u001b[33m0:00:03\u001b[0m eta \u001b[36m0:00:01\u001b[0m\n",
      "\u001b[?25hInstalling collected packages: ml_dtypes, onnx\n",
      "\u001b[2K   \u001b[90m━━━━━━━━━━━━━━━━━━━━━━━━━━━━━━━━━━━━━━━━\u001b[0m \u001b[32m2/2\u001b[0m [onnx][32m1/2\u001b[0m [onnx]\n",
      "\u001b[1A\u001b[2KSuccessfully installed ml_dtypes-0.5.4 onnx-1.19.1\n",
      "\u001b[33mWARNING: Running pip as the 'root' user can result in broken permissions and conflicting behaviour with the system package manager, possibly rendering your system unusable. It is recommended to use a virtual environment instead: https://pip.pypa.io/warnings/venv. Use the --root-user-action option if you know what you are doing and want to suppress this warning.\u001b[0m\u001b[33m\n",
      "\u001b[0m/usr/local/lib/python3.11/site-packages/torch/cuda/__init__.py:63: FutureWarning: The pynvml package is deprecated. Please install nvidia-ml-py instead. If you did not install pynvml directly, please report this to the maintainers of the package that installed pynvml for you.\n",
      "  import pynvml  # type: ignore[import]\n",
      "======================================\n",
      "         Build Stream Data\n",
      "======================================\n",
      "[✔] 已复制 5291 张图片 → stream_data/img_inference\n",
      "[✔] 已复制 5291 个 landmarks → stream_data/lms_inference\n",
      "[INFO] Using device: cuda\n",
      "[INFO] Model loaded from: checkpoint_wenet/45.pth\n",
      "/mnt/workspace/content/drive/MyDrive/Ultralight-Digital-Human/build_stream_data.py:40: DeprecationWarning: You are using the legacy TorchScript-based ONNX export. Starting in PyTorch 2.9, the new torch.export-based ONNX exporter will be the default. To switch now, set dynamo=True in torch.onnx.export. This new exporter supports features like exporting LLMs with DynamicCache. We encourage you to try it and share feedback to help improve the experience. Learn more about the new export logic: https://pytorch.org/docs/stable/onnx_dynamo.html. For exporting control flow: https://pytorch.org/tutorials/beginner/onnx/export_control_flow_model_to_onnx_tutorial.html.\n",
      "  torch.onnx.export(\n",
      "/usr/local/lib/python3.11/site-packages/torch/onnx/utils.py:684: UserWarning: Constant folding - Only steps=1 can be constant folded for opset >= 10 onnx::Slice op. Constant folding not applied. (Triggered internally at /pytorch/torch/csrc/jit/passes/onnx/constant_fold.cpp:178.)\n",
      "  _C._jit_pass_onnx_graph_shape_type_inference(\n",
      "/usr/local/lib/python3.11/site-packages/torch/onnx/utils.py:1154: UserWarning: Constant folding - Only steps=1 can be constant folded for opset >= 10 onnx::Slice op. Constant folding not applied. (Triggered internally at /pytorch/torch/csrc/jit/passes/onnx/constant_fold.cpp:178.)\n",
      "  _C._jit_pass_onnx_graph_shape_type_inference(\n",
      "[✔] ONNX 导出成功: stream_data/unet.onnx\n",
      "\n",
      "[✔] 全部流程执行完成！\n",
      "输出目录结构：\n",
      "  stream_data/\n",
      "    ├── unet.onnx\n",
      "    ├── img_inference/\n",
      "    └── lms_inference/\n",
      "======================================\n"
     ]
    }
   ],
   "source": [
    "\n",
    "%cd $PROJECT_ROOT\n",
    "!pip install onnx\n",
    "CKPT       = \"checkpoint_wenet/45.pth\"\n",
    "DATASET    = \"./data_dir\"\n",
    "\n",
    "!python build_stream_data.py \\\n",
    "  --weights $CKPT \\\n",
    "  --data_dir $DATASET \\\n",
    "  --mode \"wenet\" \\\n",
    "  --out_dir \"stream_data\"\n",
    "\n"
   ]
  },
  {
   "cell_type": "code",
   "execution_count": 6,
   "id": "59af73d3-1981-4e0b-967a-4e692c134451",
   "metadata": {
    "ExecutionIndicator": {
     "show": true
    },
    "execution": {
     "iopub.execute_input": "2025-12-01T08:17:21.734289Z",
     "iopub.status.busy": "2025-12-01T08:17:21.734049Z",
     "iopub.status.idle": "2025-12-01T08:18:03.506152Z",
     "shell.execute_reply": "2025-12-01T08:18:03.487964Z",
     "shell.execute_reply.started": "2025-12-01T08:17:21.734265Z"
    },
    "tags": []
   },
   "outputs": [
    {
     "name": "stdout",
     "output_type": "stream",
     "text": [
      "Looking in indexes: https://mirrors.aliyun.com/pypi/simple/\n",
      "Collecting kaldi_native_fbank\n",
      "  Downloading https://mirrors.aliyun.com/pypi/packages/52/3f/beb161e4fdf6710938ccf18418c147d87ba8f102903d6c6e4eda25588e22/kaldi_native_fbank-1.22.3-cp311-cp311-manylinux2014_x86_64.manylinux_2_17_x86_64.whl (321 kB)\n",
      "Installing collected packages: kaldi_native_fbank\n",
      "Successfully installed kaldi_native_fbank-1.22.3\n",
      "\u001b[33mWARNING: Running pip as the 'root' user can result in broken permissions and conflicting behaviour with the system package manager, possibly rendering your system unusable. It is recommended to use a virtual environment instead: https://pip.pypa.io/warnings/venv. Use the --root-user-action option if you know what you are doing and want to suppress this warning.\u001b[0m\u001b[33m\n",
      "\u001b[0mOpenCV: FFMPEG: tag 0x47504a4d/'MJPG' is not supported with codec id 7 and format 'mp4 / MP4 (MPEG-4 Part 14)'\n",
      "OpenCV: FFMPEG: fallback to use tag 0x7634706d/'mp4v'\n"
     ]
    }
   ],
   "source": [
    "!pip install kaldi_native_fbank\n",
    "!python dihuman_run.py --data_path \"./stream_data/\"\n"
   ]
  },
  {
   "cell_type": "code",
   "execution_count": null,
   "id": "90553548-fc43-444f-84de-660b1678f2ca",
   "metadata": {},
   "outputs": [],
   "source": [
    "ffmpeg -y -i test_video.mp4 -f s16le -ar 16000 -ac 1 -i test_audio.pcm \\\n",
    "       -c:v libx264 -c:a aac result_test.mp4\n"
   ]
  }
 ],
 "metadata": {
  "accelerator": "GPU",
  "colab": {
   "gpuType": "T4",
   "provenance": []
  },
  "kernelspec": {
   "display_name": "Python 3 (ipykernel)",
   "language": "python",
   "name": "python3"
  },
  "language_info": {
   "codemirror_mode": {
    "name": "ipython",
    "version": 3
   },
   "file_extension": ".py",
   "mimetype": "text/x-python",
   "name": "python",
   "nbconvert_exporter": "python",
   "pygments_lexer": "ipython3",
   "version": "3.11.11"
  }
 },
 "nbformat": 4,
 "nbformat_minor": 5
}
